<?xml version="1.0" encoding="UTF-8"?>
<!DOCTYPE svg PUBLIC "-//W3C//DTD SVG 1.1//EN" "http://www.w3.org/Graphics/SVG/1.1/DTD/svg11.dtd">
<svg xmlns="http://www.w3.org/2000/svg" version="1.1" width="306px" height="265px" style="shape-rendering:geometricPrecision; text-rendering:geometricPrecision; image-rendering:optimizeQuality; fill-rule:evenodd; clip-rule:evenodd" xmlns:xlink="http://www.w3.org/1999/xlink">
<g><path style="opacity:0.996" fill="#00a0c1" d="M 123.5,31.5 C 128.167,36.5 132.833,41.5 137.5,46.5C 137.5,56.5 137.5,66.5 137.5,76.5C 134.167,80.1667 130.833,83.8333 127.5,87.5C 126.5,87.8333 125.833,88.5 125.5,89.5C 124.5,90.1667 123.5,90.8333 122.5,91.5C 123.201,87.1809 122.034,83.5142 119,80.5C 118.5,66.504 118.333,52.504 118.5,38.5C 119.069,35.2809 120.736,32.9475 123.5,31.5 Z"/></g>
<g><path style="opacity:1" fill="#009fc1" d="M 139.5,31.5 C 153.5,31.5 167.5,31.5 181.5,31.5C 176.871,37.7966 171.538,43.4633 165.5,48.5C 165.631,47.6236 165.298,46.9569 164.5,46.5C 155.865,41.8356 147.532,36.8356 139.5,31.5 Z"/></g>
<g><path style="opacity:0.969" fill="#00a8cb" d="M 118.5,38.5 C 118.333,52.504 118.5,66.504 119,80.5C 122.034,83.5142 123.201,87.1809 122.5,91.5C 119.833,94.8333 116.833,97.8333 113.5,100.5C 113.666,91.1607 113.5,81.8274 113,72.5C 110.63,68.4031 107.797,64.7365 104.5,61.5C 108.93,53.6309 113.597,45.9642 118.5,38.5 Z"/></g>
<g><path style="opacity:0.972" fill="#024772" d="M 181.5,31.5 C 183.624,32.0312 185.124,33.3645 186,35.5C 189.757,41.7402 193.257,48.0736 196.5,54.5C 186.334,51.9996 176.001,50.3329 165.5,49.5C 165.5,49.1667 165.5,48.8333 165.5,48.5C 171.538,43.4633 176.871,37.7966 181.5,31.5 Z"/></g>
<g><path style="opacity:1" fill="#11aecf" d="M 123.5,31.5 C 128.833,31.5 134.167,31.5 139.5,31.5C 147.532,36.8356 155.865,41.8356 164.5,46.5C 165.298,46.9569 165.631,47.6236 165.5,48.5C 165.5,48.8333 165.5,49.1667 165.5,49.5C 163.167,51.1667 161.167,53.1667 159.5,55.5C 157.5,57.1667 155.5,58.8333 153.5,60.5C 147.89,56.2285 142.557,51.5618 137.5,46.5C 132.833,41.5 128.167,36.5 123.5,31.5 Z"/></g>
<g><path style="opacity:1" fill="#0096b5" d="M 137.5,46.5 C 142.557,51.5618 147.89,56.2285 153.5,60.5C 153.167,61.1667 152.833,61.8333 152.5,62.5C 147.5,66.8333 142.833,71.5 138.5,76.5C 138.167,76.5 137.833,76.5 137.5,76.5C 137.5,66.5 137.5,56.5 137.5,46.5 Z"/></g>
<g><path style="opacity:0.992" fill="#044d79" d="M 165.5,49.5 C 176.001,50.3329 186.334,51.9996 196.5,54.5C 198.588,56.3356 199.921,58.6689 200.5,61.5C 199.833,62.5 199.167,63.5 198.5,64.5C 195.5,64.5 192.5,64.5 189.5,64.5C 188.251,62.8639 186.584,61.6972 184.5,61C 175.986,59.9972 167.653,58.1639 159.5,55.5C 161.167,53.1667 163.167,51.1667 165.5,49.5 Z"/></g>
<g><path style="opacity:1" fill="#075280" d="M 159.5,55.5 C 167.653,58.1639 175.986,59.9972 184.5,61C 186.584,61.6972 188.251,62.8639 189.5,64.5C 185.818,64.3347 182.152,64.5014 178.5,65C 179.167,65.3333 179.833,65.6667 180.5,66C 177.145,66.7291 173.812,67.5624 170.5,68.5C 167.588,68.0719 164.755,67.4053 162,66.5C 160.615,66.5143 159.449,66.8476 158.5,67.5C 156.5,65.8333 154.5,64.1667 152.5,62.5C 152.833,61.8333 153.167,61.1667 153.5,60.5C 155.5,58.8333 157.5,57.1667 159.5,55.5 Z"/></g>
<g><path style="opacity:1" fill="#1bb2d2" d="M 104.5,61.5 C 107.797,64.7365 110.63,68.4031 113,72.5C 113.5,81.8274 113.666,91.1607 113.5,100.5C 111.833,102.5 110.167,104.5 108.5,106.5C 106.167,108.5 103.833,110.5 101.5,112.5C 101.829,97.6572 101.496,82.9905 100.5,68.5C 101.584,65.9959 102.917,63.6626 104.5,61.5 Z"/></g>
<g><path style="opacity:1" fill="#055683" d="M 189.5,64.5 C 192.5,64.5 195.5,64.5 198.5,64.5C 196.115,66.8838 194.115,69.5505 192.5,72.5C 190.782,74.2228 189.449,76.2228 188.5,78.5C 186.833,79.5 185.5,80.8333 184.5,82.5C 180.574,81.2885 176.574,80.2885 172.5,79.5C 171.893,79.6236 171.56,79.9569 171.5,80.5C 166.833,76.5 162.5,72.1667 158.5,67.5C 159.449,66.8476 160.615,66.5143 162,66.5C 164.755,67.4053 167.588,68.0719 170.5,68.5C 173.812,67.5624 177.145,66.7291 180.5,66C 179.833,65.6667 179.167,65.3333 178.5,65C 182.152,64.5014 185.818,64.3347 189.5,64.5 Z"/></g>
<g><path style="opacity:0.937" fill="#01a9ca" d="M 200.5,61.5 C 204.736,67.6283 208.736,73.9616 212.5,80.5C 207.395,78.1131 202.395,75.4464 197.5,72.5C 195.872,73.5353 194.205,73.5353 192.5,72.5C 194.115,69.5505 196.115,66.8838 198.5,64.5C 199.167,63.5 199.833,62.5 200.5,61.5 Z"/></g>
<g><path style="opacity:1" fill="#095a8c" d="M 152.5,62.5 C 154.5,64.1667 156.5,65.8333 158.5,67.5C 162.5,72.1667 166.833,76.5 171.5,80.5C 167.689,81.6453 163.689,81.8119 159.5,81C 152.386,79.5774 145.386,78.0774 138.5,76.5C 142.833,71.5 147.5,66.8333 152.5,62.5 Z"/></g>
<g><path style="opacity:0.969" fill="#1cb2d2" d="M 192.5,72.5 C 194.205,73.5353 195.872,73.5353 197.5,72.5C 202.395,75.4464 207.395,78.1131 212.5,80.5C 216.019,85.5368 219.019,90.8702 221.5,96.5C 210.66,90.2459 199.66,84.2459 188.5,78.5C 189.449,76.2228 190.782,74.2228 192.5,72.5 Z"/></g>
<g><path style="opacity:0.971" fill="#35b7d6" d="M 100.5,68.5 C 101.496,82.9905 101.829,97.6572 101.5,112.5C 99.5,115.167 97.1667,117.5 94.5,119.5C 94.8289,105.99 94.4956,92.6562 93.5,79.5C 95.5974,75.6277 97.9308,71.961 100.5,68.5 Z"/></g>
<g><path style="opacity:1" fill="#096091" d="M 137.5,76.5 C 137.833,76.5 138.167,76.5 138.5,76.5C 145.386,78.0774 152.386,79.5774 159.5,81C 163.689,81.8119 167.689,81.6453 171.5,80.5C 171.56,79.9569 171.893,79.6236 172.5,79.5C 176.574,80.2885 180.574,81.2885 184.5,82.5C 184.167,83.1667 183.833,83.8333 183.5,84.5C 180.271,87.9433 177.271,91.61 174.5,95.5C 171.15,95.665 167.817,95.4983 164.5,95C 152.248,92.1016 139.915,89.6016 127.5,87.5C 130.833,83.8333 134.167,80.1667 137.5,76.5 Z"/></g>
<g><path style="opacity:0.977" fill="#40bad9" d="M 188.5,78.5 C 199.66,84.2459 210.66,90.2459 221.5,96.5C 224.89,101.233 227.89,106.233 230.5,111.5C 214.67,102.753 199.004,93.7528 183.5,84.5C 183.833,83.8333 184.167,83.1667 184.5,82.5C 185.5,80.8333 186.833,79.5 188.5,78.5 Z"/></g>
<g><path style="opacity:1" fill="#0a6698" d="M 127.5,87.5 C 139.915,89.6016 152.248,92.1016 164.5,95C 167.817,95.4983 171.15,95.665 174.5,95.5C 173.5,96.8333 172.5,98.1667 171.5,99.5C 169.823,101.54 168.156,103.54 166.5,105.5C 161.162,106.002 155.828,106.169 150.5,106C 145.484,104.488 140.484,102.988 135.5,101.5C 132.514,97.183 129.18,93.183 125.5,89.5C 125.833,88.5 126.5,87.8333 127.5,87.5 Z"/></g>
<g><path style="opacity:0.988" fill="#51bedd" d="M 183.5,84.5 C 199.004,93.7528 214.67,102.753 230.5,111.5C 232.735,114.291 234.735,117.291 236.5,120.5C 218.778,112.113 201.778,102.446 185.5,91.5C 181.839,90.1766 181.506,90.8433 184.5,93.5C 185.481,117.788 185.814,142.122 185.5,166.5C 180.442,161.382 176.109,155.715 172.5,149.5C 172.83,132.658 172.497,115.992 171.5,99.5C 172.5,98.1667 173.5,96.8333 174.5,95.5C 177.271,91.61 180.271,87.9433 183.5,84.5 Z"/></g>
<g><path style="opacity:0.972" fill="#4dbddc" d="M 93.5,79.5 C 94.4956,92.6562 94.8289,105.99 94.5,119.5C 93.5,120.833 92.5,122.167 91.5,123.5C 89.1667,125.5 86.8333,127.5 84.5,129.5C 84.5,118.167 84.5,106.833 84.5,95.5C 87.472,90.1837 90.472,84.8504 93.5,79.5 Z"/></g>
<g><path style="opacity:0.982" fill="#68c5e3" d="M 236.5,120.5 C 239.528,125.85 242.528,131.184 245.5,136.5C 233.167,129.833 220.833,123.167 208.5,116.5C 206.833,115.167 205.167,113.833 203.5,112.5C 200.833,109.167 197.833,106.167 194.5,103.5C 191.5,99.8333 188.167,96.5 184.5,93.5C 181.506,90.8433 181.839,90.1766 185.5,91.5C 201.778,102.446 218.778,112.113 236.5,120.5 Z"/></g>
<g><path style="opacity:0.975" fill="#5dc2e0" d="M 84.5,95.5 C 84.5,106.833 84.5,118.167 84.5,129.5C 83.1667,131.167 81.8333,132.833 80.5,134.5C 79.8333,134.833 79.1667,135.167 78.5,135.5C 78.5,125.5 78.5,115.5 78.5,105.5C 80.0002,101.827 82.0002,98.4937 84.5,95.5 Z"/></g>
<g><path style="opacity:1" fill="#136da2" d="M 125.5,89.5 C 129.18,93.183 132.514,97.183 135.5,101.5C 137.252,103.246 138.585,105.246 139.5,107.5C 128.986,107.828 118.653,107.494 108.5,106.5C 110.167,104.5 111.833,102.5 113.5,100.5C 116.833,97.8333 119.833,94.8333 122.5,91.5C 123.5,90.8333 124.5,90.1667 125.5,89.5 Z"/></g>
<g><path style="opacity:0.991" fill="#39b8d8" d="M 184.5,93.5 C 188.167,96.5 191.5,99.8333 194.5,103.5C 194.461,104.756 194.961,105.756 196,106.5C 196.83,131.003 196.663,155.337 195.5,179.5C 191.408,175.742 188.074,171.409 185.5,166.5C 185.814,142.122 185.481,117.788 184.5,93.5 Z"/></g>
<g><path style="opacity:0.971" fill="#66c4e2" d="M 171.5,99.5 C 172.497,115.992 172.83,132.658 172.5,149.5C 165.833,141.5 159.167,133.5 152.5,125.5C 152.5,125.167 152.5,124.833 152.5,124.5C 152.5,124.167 152.5,123.833 152.5,123.5C 157.518,117.81 162.185,111.81 166.5,105.5C 168.156,103.54 169.823,101.54 171.5,99.5 Z"/></g>
<g><path style="opacity:1" fill="#056e9e" d="M 135.5,101.5 C 140.484,102.988 145.484,104.488 150.5,106C 155.828,106.169 161.162,106.002 166.5,105.5C 162.185,111.81 157.518,117.81 152.5,123.5C 148.646,117.8 144.312,112.467 139.5,107.5C 138.585,105.246 137.252,103.246 135.5,101.5 Z"/></g>
<g><path style="opacity:0.981" fill="#29b5d5" d="M 194.5,103.5 C 197.833,106.167 200.833,109.167 203.5,112.5C 202.502,137.661 202.169,162.995 202.5,188.5C 199.444,186.051 197.111,183.051 195.5,179.5C 196.663,155.337 196.83,131.003 196,106.5C 194.961,105.756 194.461,104.756 194.5,103.5 Z"/></g>
<g><path style="opacity:0.959" fill="#6cc6e4" d="M 78.5,105.5 C 78.5,115.5 78.5,125.5 78.5,135.5C 76.1667,138.167 73.8333,140.833 71.5,143.5C 70.5,144.167 69.5,144.833 68.5,145.5C 68.5,137.833 68.5,130.167 68.5,122.5C 71.0804,116.332 74.4137,110.665 78.5,105.5 Z"/></g>
<g><path style="opacity:0.988" fill="#15b0d0" d="M 203.5,112.5 C 205.167,113.833 206.833,115.167 208.5,116.5C 211.833,120.167 215.167,123.833 218.5,127.5C 217.825,154.069 217.158,180.736 216.5,207.5C 211.104,201.709 206.437,195.376 202.5,188.5C 202.169,162.995 202.502,137.661 203.5,112.5 Z"/></g>
<g><path style="opacity:1" fill="#1777ab" d="M 108.5,106.5 C 118.653,107.494 128.986,107.828 139.5,107.5C 144.312,112.467 148.646,117.8 152.5,123.5C 152.5,123.833 152.5,124.167 152.5,124.5C 131.993,124.83 111.66,124.497 91.5,123.5C 92.5,122.167 93.5,120.833 94.5,119.5C 97.1667,117.5 99.5,115.167 101.5,112.5C 103.833,110.5 106.167,108.5 108.5,106.5 Z"/></g>
<g><path style="opacity:0.989" fill="#01abcb" d="M 218.5,127.5 C 222.5,130.833 226.167,134.5 229.5,138.5C 228.833,166.167 228.167,193.833 227.5,221.5C 223.362,217.235 219.695,212.569 216.5,207.5C 217.158,180.736 217.825,154.069 218.5,127.5 Z"/></g>
<g><path style="opacity:0.988" fill="#197db2" d="M 91.5,123.5 C 111.66,124.497 131.993,124.83 152.5,124.5C 152.5,124.833 152.5,125.167 152.5,125.5C 149.261,128.983 146.261,132.65 143.5,136.5C 122.402,135.844 101.402,135.177 80.5,134.5C 81.8333,132.833 83.1667,131.167 84.5,129.5C 86.8333,127.5 89.1667,125.5 91.5,123.5 Z"/></g>
<g><path style="opacity:0.942" fill="#82cfea" d="M 68.5,122.5 C 68.5,130.167 68.5,137.833 68.5,145.5C 66.1667,148.167 63.8333,150.833 61.5,153.5C 60.5,154.167 59.5,154.833 58.5,155.5C 58.5,150.167 58.5,144.833 58.5,139.5C 61.0804,133.332 64.4137,127.665 68.5,122.5 Z"/></g>
<g><path style="opacity:0.99" fill="#00a7c8" d="M 229.5,138.5 C 231.473,141.139 233.806,143.473 236.5,145.5C 237.167,145.5 237.5,145.833 237.5,146.5C 236.833,174.833 236.167,203.167 235.5,231.5C 232.364,228.571 229.697,225.238 227.5,221.5C 228.167,193.833 228.833,166.167 229.5,138.5 Z"/></g>
<g><path style="opacity:0.961" fill="#84d0eb" d="M 208.5,116.5 C 220.833,123.167 233.167,129.833 245.5,136.5C 249.152,142.464 252.819,148.464 256.5,154.5C 250.062,151.447 243.729,148.114 237.5,144.5C 236.893,144.624 236.56,144.957 236.5,145.5C 233.806,143.473 231.473,141.139 229.5,138.5C 226.167,134.5 222.5,130.833 218.5,127.5C 215.167,123.833 211.833,120.167 208.5,116.5 Z"/></g>
<g><path style="opacity:0.989" fill="#1784b8" d="M 80.5,134.5 C 101.402,135.177 122.402,135.844 143.5,136.5C 141.397,139.72 139.064,142.72 136.5,145.5C 114.735,144.844 93.0688,144.177 71.5,143.5C 73.8333,140.833 76.1667,138.167 78.5,135.5C 79.1667,135.167 79.8333,134.833 80.5,134.5 Z"/></g>
<g><path style="opacity:0.958" fill="#90d4ef" d="M 58.5,139.5 C 58.5,144.833 58.5,150.167 58.5,155.5C 55.5,158.833 52.5,162.167 49.5,165.5C 48.5,166.167 47.5,166.833 46.5,167.5C 46.5,164.833 46.5,162.167 46.5,159.5C 50.0002,152.494 54.0002,145.827 58.5,139.5 Z"/></g>
<g><path style="opacity:0.989" fill="#00a3c5" d="M 237.5,146.5 C 239.833,149.167 242.167,151.833 244.5,154.5C 244.5,181.833 244.5,209.167 244.5,236.5C 244.478,238.8 243.478,239.967 241.5,240C 239.112,237.371 237.112,234.538 235.5,231.5C 236.167,203.167 236.833,174.833 237.5,146.5 Z"/></g>
<g><path style="opacity:0.991" fill="#178abe" d="M 71.5,143.5 C 93.0688,144.177 114.735,144.844 136.5,145.5C 134.518,148.81 132.185,151.81 129.5,154.5C 106.661,154.831 83.9939,154.497 61.5,153.5C 63.8333,150.833 66.1667,148.167 68.5,145.5C 69.5,144.833 70.5,144.167 71.5,143.5 Z"/></g>
<g><path style="opacity:0.944" fill="#93d6f0" d="M 236.5,145.5 C 236.56,144.957 236.893,144.624 237.5,144.5C 243.729,148.114 250.062,151.447 256.5,154.5C 261.752,162.668 266.752,171.001 271.5,179.5C 264.889,174.226 258.555,168.56 252.5,162.5C 250.167,159.5 247.5,156.833 244.5,154.5C 242.167,151.833 239.833,149.167 237.5,146.5C 237.5,145.833 237.167,145.5 236.5,145.5 Z"/></g>
<g><path style="opacity:0.984" fill="#00a0c2" d="M 244.5,154.5 C 247.5,156.833 250.167,159.5 252.5,162.5C 252.5,181.833 252.5,201.167 252.5,220.5C 250.341,226.151 247.674,231.484 244.5,236.5C 244.5,209.167 244.5,181.833 244.5,154.5 Z"/></g>
<g><path style="opacity:0.992" fill="#1a90c3" d="M 61.5,153.5 C 83.9939,154.497 106.661,154.831 129.5,154.5C 126.5,158.5 123.5,162.5 120.5,166.5C 96.6608,166.831 72.9941,166.498 49.5,165.5C 52.5,162.167 55.5,158.833 58.5,155.5C 59.5,154.833 60.5,154.167 61.5,153.5 Z"/></g>
<g><path style="opacity:0.971" fill="#009dbf" d="M 252.5,162.5 C 258.555,168.56 264.889,174.226 271.5,179.5C 266.638,193.574 260.305,207.241 252.5,220.5C 252.5,201.167 252.5,181.833 252.5,162.5 Z"/></g>
<g><path style="opacity:0.809" fill="#a3dcf5" d="M 46.5,159.5 C 46.5,162.167 46.5,164.833 46.5,167.5C 44.8333,169.5 43.1667,171.5 41.5,173.5C 39.1667,175.5 36.8333,177.5 34.5,179.5C 38.0002,172.494 42.0002,165.827 46.5,159.5 Z"/></g>
<g><path style="opacity:0.992" fill="#1a96c9" d="M 49.5,165.5 C 72.9941,166.498 96.6608,166.831 120.5,166.5C 118.5,169.167 116.5,171.833 114.5,174.5C 89.9943,174.831 65.6609,174.498 41.5,173.5C 43.1667,171.5 44.8333,169.5 46.5,167.5C 47.5,166.833 48.5,166.167 49.5,165.5 Z"/></g>
<g><path style="opacity:0.983" fill="#189ccf" d="M 41.5,173.5 C 65.6609,174.498 89.9943,174.831 114.5,174.5C 111.925,177.319 109.592,180.319 107.5,183.5C 83.1667,183.5 58.8333,183.5 34.5,183.5C 33.3143,182.039 33.3143,180.705 34.5,179.5C 36.8333,177.5 39.1667,175.5 41.5,173.5 Z"/></g>
<g><path style="opacity:0.993" fill="#19a1d4" d="M 34.5,183.5 C 58.8333,183.5 83.1667,183.5 107.5,183.5C 105.408,186.681 103.075,189.681 100.5,192.5C 80.1667,192.5 59.8333,192.5 39.5,192.5C 37.5954,189.696 35.9287,186.696 34.5,183.5 Z"/></g>
<g><path style="opacity:0.973" fill="#17a9db" d="M 39.5,192.5 C 59.8333,192.5 80.1667,192.5 100.5,192.5C 96.7294,197.722 92.7294,202.722 88.5,207.5C 74.5,207.5 60.5,207.5 46.5,207.5C 43.3836,202.93 41.0502,197.93 39.5,192.5 Z"/></g>
<g><path style="opacity:0.966" fill="#19b1e2" d="M 46.5,207.5 C 60.5,207.5 74.5,207.5 88.5,207.5C 85.9749,211.896 82.9749,215.896 79.5,219.5C 70.3483,218.506 61.015,218.173 51.5,218.5C 49.5617,214.957 47.8951,211.29 46.5,207.5 Z"/></g>
<g><path style="opacity:0.902" fill="#20bcec" d="M 51.5,218.5 C 61.015,218.173 70.3483,218.506 79.5,219.5C 74.1908,226.481 68.8575,233.481 63.5,240.5C 58.9955,233.495 54.9955,226.161 51.5,218.5 Z"/></g>
</svg>
