<?xml version="1.0" encoding="UTF-8"?>
<svg version="1.1" xmlns="http://www.w3.org/2000/svg" width="8534" height="8534">
<path d="M0 0 C5.69202525 0.00843803 11.38403061 -0.00102388 17.07605415 -0.00793084 C27.05547848 -0.01768243 37.03485309 -0.01652597 47.01427777 -0.00789674 C61.99687344 0.00499446 76.97943039 0.00022282 91.9620277 -0.00769284 C117.62397189 -0.02074693 143.2858979 -0.01965791 168.9478431 -0.0108209 C195.07497735 -0.00188416 221.20210004 0.00040027 247.32923534 -0.00519354 C248.98911261 -0.00554481 250.64898989 -0.00589608 252.35916647 -0.00625799 C260.83508843 -0.00808065 269.31101037 -0.01000732 277.78693231 -0.01196883 C339.62132538 -0.0260501 401.45571151 -0.02534049 463.29010525 -0.01712619 C525.95415146 -0.00884655 588.61819284 -0.00710643 651.28223935 -0.0133382 C654.24792429 -0.01362851 654.24792429 -0.01362851 657.27352206 -0.01392469 C675.39291254 -0.01569933 693.51230302 -0.01754104 711.6316935 -0.01946332 C757.06618705 -0.02427565 802.50068067 -0.02804371 847.93517438 -0.03110444 C850.01706089 -0.03124514 852.0989474 -0.03138585 854.24392139 -0.03153081 C956.85251827 -0.03836606 1059.46111429 -0.03375914 1162.06971112 -0.02802097 C1166.56414731 -0.02777006 1171.0585835 -0.02751917 1175.55301969 -0.02726828 C1178.89420921 -0.02708173 1178.89420921 -0.02708173 1182.30289751 -0.02689141 C1211.67746592 -0.02525185 1241.05203433 -0.02364202 1270.42660275 -0.02211153 C1272.67198111 -0.02199404 1274.91735948 -0.02187656 1277.23077961 -0.02175552 C1381.28399852 -0.01635177 1485.33721699 -0.01763725 1589.39043596 -0.0204029 C1600.74187527 -0.02070229 1612.09331459 -0.02098878 1623.44475391 -0.02127672 C1657.65936526 -0.02214849 1691.87397661 -0.02303931 1726.08858795 -0.02396952 C1830.4233652 -0.02680311 1934.75814245 -0.02860383 2039.09291974 -0.02951442 C2042.57756509 -0.02954533 2042.57756509 -0.02954533 2046.13260733 -0.02957686 C2196.58236052 -0.03089309 2347.03211323 -0.02759076 2497.48186627 -0.02096569 C2501.08458086 -0.02080766 2501.08458086 -0.02080766 2504.76007757 -0.02064643 C2585.20895226 -0.01711738 2665.65782693 -0.01334918 2746.10670161 -0.00955654 C2989.38637585 0.00190473 3232.66604836 0.00818566 3667.13208831 -0.00990253 C3747.56064182 -0.01369216 3827.98919532 -0.01743771 3908.41774884 -0.02096569 C3910.81888249 -0.02107142 3913.22001614 -0.02117716 3915.69391142 -0.02128609 C4066.06483947 -0.02790203 4216.43576718 -0.03084818 4366.80669537 -0.02951442 C4369.12902121 -0.02949416 4371.45134705 -0.02947389 4373.8440464 -0.029453 C4478.12089201 -0.02853284 4582.39773758 -0.02661793 4686.67458315 -0.02378292 C4720.8741038 -0.02285427 4755.07362446 -0.02197126 4789.27314512 -0.02110377 C4800.61803714 -0.02081579 4811.96292916 -0.02052373 4823.30782118 -0.02022219 C4927.36288512 -0.01746495 5031.41794849 -0.01666714 5135.47301236 -0.02211153 C5138.83894461 -0.0222869 5138.83894461 -0.0222869 5142.2728755 -0.02246582 C5171.63078214 -0.02400119 5200.98868878 -0.02562912 5230.34659542 -0.02726828 C5232.57229737 -0.02739252 5234.79799932 -0.02751676 5237.09114679 -0.02764477 C5241.58150131 -0.02789545 5246.07185583 -0.02814635 5250.56221035 -0.02839746 C5353.02962081 -0.0341128 5455.49703024 -0.03802969 5557.96444073 -0.03110444 C5560.04358585 -0.03096437 5562.12273097 -0.03082431 5564.26488048 -0.03068 C5609.62497494 -0.02758954 5654.98506929 -0.02363083 5700.3451636 -0.01881859 C5718.43590098 -0.01691092 5736.52663837 -0.01510911 5754.61737576 -0.0133382 C5756.5907604 -0.01314195 5758.56414504 -0.0129457 5760.59732922 -0.01274351 C5823.18088229 -0.00656885 5885.76443037 -0.0095747 5948.34798307 -0.01788851 C6009.97698993 -0.02603476 6071.60598896 -0.02504566 6133.23499495 -0.01078342 C6141.68012321 -0.00883007 6150.12525148 -0.00698073 6158.57037976 -0.00519354 C6160.22364625 -0.00483957 6161.87691275 -0.00448561 6163.58027822 -0.00412092 C6189.621728 0.00118299 6215.66316578 -0.00348991 6241.70461415 -0.0124576 C6267.19912238 -0.02103108 6292.69361118 -0.01891653 6318.1881175 -0.00544718 C6333.04637454 0.00208683 6347.90457646 0.00159835 6362.76283018 -0.01124961 C6372.63278027 -0.01895712 6382.5026885 -0.01560088 6392.37263419 -0.00362423 C6397.93982463 0.00283451 6403.50690644 0.00501204 6409.07409094 -0.00664962 C6445.8180124 -0.07839403 6482.48698305 1.43634385 6519.01230755 5.63086499 C6519.92599103 5.73280163 6520.8396745 5.83473828 6521.78104535 5.93976391 C6606.49012177 15.43294502 6690.43392656 35.21510812 6864.44980755 105.00586499 C6865.28090039 105.3976997 6866.11199322 105.78953442 6866.96827069 106.19324292 C6879.13635753 111.93937186 6891.09731585 118.00965536 6902.94980755 124.38086499 C6903.92041119 124.90208935 6903.92041119 124.90208935 6904.91062298 125.4338435 C6922.5540213 134.92902158 6939.88201754 144.88298844 6956.94980755 155.38086499 C6958.13268353 156.10523754 6958.13268353 156.10523754 6959.33945599 156.84424389 C6988.77928402 174.93276602 7017.2718617 194.59270566 7044.6646513 215.63477124 C7047.50961219 217.80861314 7050.38304043 219.94021102 7053.26230755 222.06836499 C7060.04114834 227.13312746 7066.56830083 232.50593803 7073.10898724 237.87207592 C7074.72193842 239.19409692 7076.33941249 240.51059575 7077.95762005 241.82617749 C7087.73211428 249.77685938 7097.36925562 257.86847752 7106.6959013 266.34180249 C7108.71863446 268.17172745 7110.7635019 269.96968226 7112.82480755 271.75586499 C7117.69700478 276.00566576 7122.45105673 280.3830551 7127.20137921 284.76787365 C7128.32864397 285.80781807 7129.45672629 286.84687733 7130.58580914 287.88484753 C7140.50575439 297.01194242 7150.1324172 306.40663617 7159.65049115 315.95117749 C7161.9717707 318.27787944 7164.29843418 320.59910327 7166.6255888 322.91992749 C7168.12981622 324.42481486 7169.63373386 325.93001196 7171.13730755 327.43555249 C7172.16090375 328.45611233 7172.16090375 328.45611233 7173.20517865 329.49728955 C7177.07675432 333.387589 7180.77467941 337.37745245 7184.35141888 341.54092968 C7187.12794662 344.73704305 7190.04652296 347.80029591 7192.94980755 350.88086499 C7197.71644773 355.9669834 7202.42235926 361.07949391 7206.94980755 366.38086499 C7207.87135045 367.44885997 7208.79326168 368.51653719 7209.71543255 369.58398999 C7215.90544712 376.76140518 7221.98153428 384.01741095 7227.94980755 391.38086499 C7228.9806155 392.64164321 7230.01189754 393.9020339 7231.04355755 395.16211499 C7237.82804343 403.45971646 7244.48451091 411.83112844 7250.94980755 420.38086499 C7251.50926068 421.11820874 7252.0687138 421.85555249 7252.64512005 422.61523999 C7254.54209822 425.11763671 7256.43411549 427.62371602 7258.32480755 430.13086499 C7259.18888226 431.2721687 7259.18888226 431.2721687 7260.07041302 432.43652905 C7270.86427559 446.80265319 7280.93777927 461.67324982 7290.88730755 476.63086499 C7291.45629773 477.48526165 7292.0252879 478.33965832 7292.6115202 479.2199458 C7300.9779457 491.79211586 7309.20654327 504.41271151 7316.94980755 517.38086499 C7317.45657025 518.22149487 7317.96333294 519.06212475 7318.48545208 519.92822827 C7354.01254424 578.88599843 7384.12066113 641.20942813 7407.14048138 706.10260571 C7407.9692618 708.43562882 7408.80395353 710.76648011 7409.63926068 713.09717358 C7440.87532691 800.49901448 7460.14591508 892.17141512 7467.69980755 993.06836499 C7467.75906415 993.91014294 7467.81832074 994.75192089 7467.87937298 995.61920727 C7469.4921846 1018.97849836 7470.15983118 1042.34338773 7470.13730755 1065.75586499 C7470.13640118 1067.5278526 7470.13640118 1067.5278526 7470.1354765 1069.33563793 C7470.04331942 1136.5125265 7463.63544898 1203.40502736 7450.94980755 1269.38086499 C7450.80154522 1270.15375866 7450.6532829 1270.92665234 7450.50052777 1271.72296704 C7442.90981263 1311.10051328 7432.96737556 1350.03882862 7420.6523222 1388.20294751 C7419.9363433 1390.42260652 7419.22466786 1392.64361618 7418.51328412 1394.8647517 C7397.43402753 1460.50041111 7370.0824498 1525.3782293 7335.33164349 1584.98438061 C7333.5780447 1588.02560424 7331.89392921 1591.10193929 7330.21274701 1594.18359936 C7315.44944621 1621.20611455 7298.49616555 1647.09964631 7280.94980755 1672.38086499 C7280.15727582 1673.52313549 7280.15727582 1673.52313549 7279.34873333 1674.68848217 C7268.44315285 1690.36196984 7257.17462462 1705.77152163 7245.27646771 1720.70703686 C7243.91146736 1722.42923826 7242.55985739 1724.16121322 7241.2115263 1725.89648999 C7235.81786672 1732.83051388 7230.28110976 1739.60831015 7224.57480755 1746.28711499 C7222.11064791 1749.17637819 7219.71319756 1752.11604957 7217.32480755 1755.06836499 C7213.7014626 1759.51990307 7209.93016883 1763.80468954 7206.06699505 1768.04883374 C7204.16929586 1770.13910388 7202.30247341 1772.25072613 7200.44980755 1774.38086499 C7196.33663583 1779.09642341 7192.15078039 1783.74352069 7187.94980755 1788.38086499 C7187.20400433 1789.21351879 7186.45820111 1790.0461726 7185.68979779 1790.90405835 C7175.95067711 1801.63467006 7165.65858224 1811.82464578 7155.40342083 1822.0576228 C7152.7218866 1824.73342397 7150.0449196 1827.41374264 7147.3692297 1830.09538639 C7145.27936297 1832.18888889 7143.18709319 1834.27997678 7141.09411755 1836.37037075 C7140.10635997 1837.3574693 7139.11932218 1838.34528873 7138.13307324 1839.33389462 C7133.10727724 1844.36908198 7128.05280012 1849.30470011 7122.64196148 1853.92682446 C7119.89621087 1856.28620359 7117.27708864 1858.77948106 7114.63730755 1861.25586499 C7109.76740943 1865.79113042 7104.75326231 1870.0676705 7099.5630888 1874.23633374 C7096.95133132 1876.37961454 7094.44615454 1878.60466829 7091.94980755 1880.88086499 C7087.29064731 1885.11646521 7082.4743625 1889.11475382 7077.57334271 1893.06641186 C7075.74851635 1894.54383519 7073.93287452 1896.03213267 7072.1177763 1897.52148999 C7064.20007331 1904.00799636 7056.18167883 1910.2950861 7047.94980755 1916.38086499 C7046.72747171 1917.30013403 7045.50617364 1918.2207841 7044.28574505 1919.14258374 C7040.18614914 1922.238721 7036.07068703 1925.31313133 7031.94980755 1928.38086499 C7031.30962689 1928.85942944 7030.66944623 1929.33799389 7030.00986615 1929.8310603 C6983.45081832 1964.51099082 6932.982212 1994.36796813 6881.29892865 2020.6748103 C6878.29991969 2022.20251657 6875.30613384 2023.73996063 6872.3130888 2025.27930249 C6833.63925311 2045.03861136 6793.16220023 2061.39681888 6752.15574017 2075.61517895 C6749.96120985 2076.37690721 6747.76840184 2077.14343618 6745.57578412 2077.91065014 C6661.66318182 2107.19078223 6573.49759696 2124.70173286 6476.82480755 2132.13086499 C6476.01121777 2132.19012158 6475.19762799 2132.24937817 6474.35938397 2132.31043042 C6445.75190208 2134.35515114 6417.18296408 2134.52792872 6388.51852537 2134.50887875 C6382.87384114 2134.50625918 6377.22915951 2134.50952256 6371.58447562 2134.51199072 C6361.65902968 2134.51553424 6351.73358918 2134.5153884 6341.80814303 2134.51280422 C6326.90629769 2134.5089454 6312.00445686 2134.51091391 6297.10261154 2134.51396925 C6271.58632526 2134.51903167 6246.07004089 2134.51934733 6220.5537543 2134.51710573 C6194.55674946 2134.51484147 6168.55974596 2134.51477452 6142.56274113 2134.51733844 C6140.91407878 2134.51749963 6139.26541642 2134.51766083 6137.5667946 2134.51782691 C6129.14883812 2134.51865943 6120.73088165 2134.51952629 6112.31292518 2134.52040444 C6050.82584339 2134.5267412 5989.33876225 2134.52811679 5927.85168019 2134.52698696 C5865.52151918 2134.52585524 5803.19135877 2134.52688594 5740.86119786 2134.53055943 C5736.88784215 2134.53079142 5732.91448644 2134.53102339 5728.94113073 2134.53125535 C5712.92064961 2134.53219488 5696.90016849 2134.53315117 5680.87968738 2134.53412654 C5635.71816686 2134.53687202 5590.55664633 2134.53925139 5545.39512578 2134.54137851 C5543.32553401 2134.54147606 5541.25594224 2134.54157361 5539.12363556 2134.54167411 C5421.39374201 2134.54718066 5303.66384843 2134.54748375 5185.93395478 2134.54789497 C5167.93606202 2134.54795822 5149.93816926 2134.54802474 5131.9402765 2134.54809552 C5127.42928668 2134.54811322 5122.91829685 2134.54813059 5118.40730703 2134.54814765 C5017.18806755 2134.54853535 4915.96882813 2134.55071365 4814.74958868 2134.5532779 C4792.16258694 2134.55384946 4769.57558519 2134.55440343 4746.98858344 2134.55495853 C4743.62550987 2134.55504122 4743.62550987 2134.55504122 4740.19449541 2134.55512557 C4726.58488634 2134.55546007 4712.97527727 2134.55579384 4699.3656682 2134.55612713 C4692.548015 2134.55629421 4685.73036179 2134.55646172 4678.91270859 2134.55662927 C4572.9082165 2134.55923121 4466.9037244 2134.56146149 4360.8992323 2134.56331147 C4358.58949692 2134.56335184 4356.27976155 2134.56339221 4353.90003419 2134.5634338 C4206.70475496 2134.56599711 4059.50947576 2134.56689628 3912.31419651 2134.56663347 C3905.07562044 2134.56662071 3897.83704438 2134.56660875 3890.59846831 2134.56659706 C3839.74401999 2134.56651471 3788.88957167 2134.566412 3738.03512334 2134.56630418 C3723.45392393 2134.56627341 3708.87272452 2134.56624334 3694.29152511 2134.56621336 C3682.12889845 2134.56618827 3669.96627179 2134.56616248 3657.80364512 2134.56613525 C3428.07622237 2134.56562381 3198.34879997 2134.56704192 2968.62137738 2134.57648266 C2966.20275198 2134.57658202 2963.78412657 2134.57668138 2961.29220949 2134.57678375 C2885.72283462 2134.5798951 2810.15345976 2134.58326159 2734.5840849 2134.58667553 C2657.04438916 2134.59017694 2579.50469342 2134.59364739 2501.96499768 2134.59693993 C2499.57752248 2134.59704146 2497.19004728 2134.59714298 2494.73022435 2134.59724758 C2345.21650724 2134.60359643 2195.70279024 2134.60751854 2046.189073 2134.60879792 C2043.87999304 2134.60881794 2041.57091309 2134.60883797 2039.19186101 2134.60885861 C1937.78439198 2134.60973392 1836.37692296 2134.61005371 1734.96945392 2134.60976772 C1694.17353602 2134.60965344 1653.37761812 2134.60959737 1612.58170022 2134.6095644 C1605.8175195 2134.609558 1599.05333877 2134.60954892 1592.28915805 2134.60953925 C1488.81706724 2134.60940275 1385.34497675 2134.61074927 1281.87288609 2134.61658443 C1279.64127764 2134.6167101 1277.40966918 2134.61683577 1275.11043623 2134.61696525 C1239.21201437 2134.61899429 1203.31359251 2134.62113831 1167.41517066 2134.62329206 C1065.5106669 2134.6294009 963.60616356 2134.63444498 861.70165959 2134.63232089 C859.63404146 2134.63227818 857.56642332 2134.63223546 855.43615009 2134.63219145 C810.32795837 2134.63123811 765.21976668 2134.6297223 720.111575 2134.62765474 C702.12132808 2134.62683841 684.13108116 2134.62609479 666.14083424 2134.62537373 C664.17840278 2134.62529308 662.21597133 2134.62521243 660.19407225 2134.62512933 C597.9502649 2134.62260558 535.70645994 2134.62622313 473.46265301 2134.63339155 C412.17124191 2134.64042427 350.87983414 2134.64138341 289.58842303 2134.63350461 C281.19089962 2134.63242599 272.7933762 2134.63141712 264.39585277 2134.63045006 C262.7518936 2134.63025804 261.10793442 2134.63006602 259.4141583 2134.62986819 C233.51153414 2134.62702452 207.60891553 2134.63084471 181.70629226 2134.63753066 C156.35214976 2134.64393829 130.99801577 2134.64322785 105.64387373 2134.63493678 C90.86433992 2134.63031493 76.08483093 2134.63105738 61.30529898 2134.64003082 C51.49112802 2134.64543891 41.67697561 2134.64348402 31.86280627 2134.63576014 C26.32484604 2134.63160018 20.78693454 2134.63032053 15.24897728 2134.63823991 C-20.16698654 2134.68550406 -55.57610022 2133.87804284 -90.86269245 2130.63086499 C-91.78524829 2130.54816357 -92.70780414 2130.46546215 -93.65831623 2130.38025463 C-183.29112069 2122.28911738 -270.99588149 2102.41889987 -527.05019245 1993.38086499 C-527.94154895 1992.86492779 -527.94154895 1992.86492779 -528.85091266 1992.33856762 C-547.32905737 1981.64000134 -565.35115293 1970.46423558 -583.00038776 1958.44727124 C-586.80477016 1955.86959811 -590.63922515 1953.33931136 -594.47572956 1950.80982006 C-604.09436391 1944.45765648 -613.50485539 1937.86328144 -622.79237995 1931.03711499 C-625.13269419 1929.32034468 -627.48147915 1927.61564825 -629.83144245 1925.91211499 C-638.86244569 1919.3420442 -647.6623492 1912.56888982 -656.2806612 1905.46680249 C-659.86230979 1902.5180741 -663.51016392 1899.66227531 -667.17519245 1896.81836499 C-672.59034134 1892.60222991 -677.82868469 1888.21127556 -683.01381549 1883.71607006 C-686.45048891 1880.73858445 -689.93420774 1877.84444744 -693.48769245 1875.00586499 C-698.74356626 1870.74518621 -703.66525747 1866.16771119 -708.57338581 1861.51611889 C-711.6048738 1858.64530757 -714.66262061 1855.82574301 -717.81923542 1853.09253491 C-730.32392948 1842.17915782 -742.1115099 1830.48267321 -753.82631549 1818.73511303 C-756.13871968 1816.41727661 -758.45652143 1814.10493195 -760.77480182 1811.79297436 C-762.27447201 1810.29264434 -763.7738325 1808.79200468 -765.2728487 1807.29102124 C-765.9521091 1806.61378506 -766.63136951 1805.93654888 -767.33121356 1805.2387904 C-771.22440277 1801.32667918 -774.93038969 1797.30478486 -778.53729877 1793.12734021 C-780.20879465 1791.19777557 -781.93351017 1789.33047681 -783.69862995 1787.48633374 C-784.30682575 1786.8465559 -784.91502155 1786.20677807 -785.54164752 1785.54761303 C-786.16321735 1784.89446118 -786.78478717 1784.24130932 -787.42519245 1783.56836499 C-792.50754782 1778.19184999 -797.33413399 1772.74210909 -801.9447237 1766.95508374 C-804.22220091 1764.1705615 -806.61331253 1761.52672695 -809.05019245 1758.88086499 C-813.9440476 1753.55099816 -818.50938007 1748.0117611 -823.05019245 1742.38086499 C-824.02427111 1741.19759949 -824.99960244 1740.01536446 -825.9759737 1738.83398999 C-834.00605417 1729.08843199 -841.6211902 1719.07009129 -849.14736042 1708.93213452 C-851.00977036 1706.43506191 -852.88802631 1703.95089487 -854.7728487 1701.47070874 C-899.09337121 1643.07046222 -937.16596936 1578.67086543 -967.45009479 1511.90039624 C-969.02828582 1508.4290502 -970.62578499 1504.96711599 -972.2259737 1501.50586499 C-1011.70610934 1415.51736812 -1038.04213706 1323.41192461 -1061.80019245 1150.44336499 C-1061.85944904 1149.71602154 -1061.91870563 1148.9886781 -1061.97975788 1148.23929394 C-1063.4631137 1129.73360947 -1064.21481641 1111.26457828 -1064.25331745 1092.70117749 C-1064.25614482 1091.75090554 -1064.2589722 1090.80063359 -1064.26188526 1089.82156552 C-1064.27674692 1084.76938928 -1064.28605219 1079.71724052 -1064.29042682 1074.66504467 C-1064.29476055 1070.60538038 -1064.3084709 1066.54593474 -1064.33144245 1062.48633374 C-1064.53707875 1025.33409161 -1063.05601631 988.31175378 -1058.80019245 951.38086499 C-1058.69725879 950.46414013 -1058.59432514 949.54741528 -1058.48827228 948.60291088 C-1047.76901076 853.54936019 -1024.65115494 759.9755415 -930.64931354 550.16895092 C-928.95620341 547.21699403 -927.30542999 544.24437329 -925.6634737 541.26367749 C-913.74650791 519.63447693 -900.53737078 498.98944025 -886.86269245 478.44336499 C-886.31737873 477.62342053 -885.772065 476.80347607 -885.21022663 475.95868481 C-875.22197823 460.9590224 -865.07479827 446.08125944 -854.05019245 431.81836499 C-852.68108635 430.03628638 -851.31260255 428.25372951 -849.9447237 426.47070874 C-849.28552936 425.61203198 -848.62633502 424.75335522 -847.9471651 423.86865795 C-845.67687664 420.89127837 -843.44504336 417.88686236 -841.21718463 414.87769116 C-836.22848483 408.14459286 -831.02822895 401.67258424 -825.5619112 395.32227124 C-823.3532946 392.73581976 -821.21844677 390.1135483 -819.11269245 387.44336499 C-811.54599119 377.91148774 -803.49674417 368.78514801 -795.2728487 359.81836499 C-793.37597481 357.73813773 -791.51626302 355.63529601 -789.67519245 353.50586499 C-785.154235 348.31358207 -780.46661138 343.27507283 -775.77626667 338.23633374 C-774.61482769 336.9878279 -773.45502451 335.73779855 -772.29677448 334.48633374 C-763.88630687 325.40475768 -755.29098695 316.51889088 -746.55019245 307.75586499 C-745.63060749 306.83168774 -744.71102252 305.90751049 -743.76357135 304.95532788 C-739.20882815 300.41094956 -734.59495329 296.01495575 -729.71230182 291.82471264 C-727.72643204 290.09961953 -725.87692221 288.2728351 -724.05019245 286.38086499 C-720.92173281 283.209965 -717.68163892 280.25516538 -714.3040987 277.35352124 C-712.09034959 275.41601118 -709.92776997 273.42942108 -707.77138385 271.42847241 C-702.56616441 266.60026265 -697.23609706 262.01830041 -691.7025362 257.56445874 C-689.05751608 255.38689431 -686.5180672 253.12767736 -683.98769245 250.81836499 C-680.05502112 247.24320923 -676.0178378 243.87195233 -671.8431612 240.58398999 C-669.81281909 238.98243342 -667.79614375 237.36968715 -665.7884737 235.74023999 C-656.1895714 227.96597718 -646.35012826 220.54002565 -636.44130573 213.16650952 C-634.26048396 211.53790727 -632.08859524 209.8984785 -629.9212862 208.25195874 C-582.13557776 171.9798684 -530.21405388 141.27539798 -476.9315401 113.86328686 C-475.04685287 112.89363588 -473.16364908 111.92109474 -471.28212604 110.94531811 C-395.19706069 71.5728158 -312.24681378 43.30620985 -113.42519245 5.69336499 C-112.58847003 5.59649395 -111.75174762 5.49962292 -110.88966999 5.3998164 C-74.04076297 1.18146431 -37.05997409 -0.07763007 0 0 Z " fill="#050505" transform="translate(1064.0501924462733,6399.619135014254)"/>
<path d="M0 0 C5.69202525 0.00843803 11.38403061 -0.00102388 17.07605415 -0.00793084 C27.05547848 -0.01768243 37.03485309 -0.01652597 47.01427777 -0.00789674 C61.99687344 0.00499446 76.97943039 0.00022282 91.9620277 -0.00769284 C117.62397189 -0.02074693 143.2858979 -0.01965791 168.9478431 -0.0108209 C195.07497735 -0.00188416 221.20210004 0.00040027 247.32923534 -0.00519354 C248.98911261 -0.00554481 250.64898989 -0.00589608 252.35916647 -0.00625799 C260.83508843 -0.00808065 269.31101037 -0.01000732 277.78693231 -0.01196883 C339.62132538 -0.0260501 401.45571151 -0.02534049 463.29010525 -0.01712619 C525.95415146 -0.00884655 588.61819284 -0.00710643 651.28223935 -0.0133382 C654.24792429 -0.01362851 654.24792429 -0.01362851 657.27352206 -0.01392469 C675.39291254 -0.01569933 693.51230302 -0.01754104 711.6316935 -0.01946332 C757.06618705 -0.02427565 802.50068067 -0.02804371 847.93517438 -0.03110444 C850.01706089 -0.03124514 852.0989474 -0.03138585 854.24392139 -0.03153081 C956.85251827 -0.03836606 1059.46111429 -0.03375914 1162.06971112 -0.02802097 C1166.56414731 -0.02777006 1171.0585835 -0.02751917 1175.55301969 -0.02726828 C1178.89420921 -0.02708173 1178.89420921 -0.02708173 1182.30289751 -0.02689141 C1211.67746592 -0.02525185 1241.05203433 -0.02364202 1270.42660275 -0.02211153 C1272.67198111 -0.02199404 1274.91735948 -0.02187656 1277.23077961 -0.02175552 C1381.28399852 -0.01635177 1485.33721699 -0.01763725 1589.39043596 -0.0204029 C1600.74187527 -0.02070229 1612.09331459 -0.02098878 1623.44475391 -0.02127672 C1657.65936526 -0.02214849 1691.87397661 -0.02303931 1726.08858795 -0.02396952 C1830.4233652 -0.02680311 1934.75814245 -0.02860383 2039.09291974 -0.02951442 C2042.57756509 -0.02954533 2042.57756509 -0.02954533 2046.13260733 -0.02957686 C2196.58236052 -0.03089309 2347.03211323 -0.02759076 2497.48186627 -0.02096569 C2501.08458086 -0.02080766 2501.08458086 -0.02080766 2504.76007757 -0.02064643 C2585.20895226 -0.01711738 2665.65782693 -0.01334918 2746.10670161 -0.00955654 C2989.38637585 0.00190473 3232.66604836 0.00818566 3667.13208831 -0.00990253 C3747.56064182 -0.01369216 3827.98919532 -0.01743771 3908.41774884 -0.02096569 C3910.81888249 -0.02107142 3913.22001614 -0.02117716 3915.69391142 -0.02128609 C4066.06483947 -0.02790203 4216.43576718 -0.03084818 4366.80669537 -0.02951442 C4369.12902121 -0.02949416 4371.45134705 -0.02947389 4373.8440464 -0.029453 C4478.12089201 -0.02853284 4582.39773758 -0.02661793 4686.67458315 -0.02378292 C4720.8741038 -0.02285427 4755.07362446 -0.02197126 4789.27314512 -0.02110377 C4800.61803714 -0.02081579 4811.96292916 -0.02052373 4823.30782118 -0.02022219 C4927.36288512 -0.01746495 5031.41794849 -0.01666714 5135.47301236 -0.02211153 C5138.83894461 -0.0222869 5138.83894461 -0.0222869 5142.2728755 -0.02246582 C5171.63078214 -0.02400119 5200.98868878 -0.02562912 5230.34659542 -0.02726828 C5232.57229737 -0.02739252 5234.79799932 -0.02751676 5237.09114679 -0.02764477 C5241.58150131 -0.02789545 5246.07185583 -0.02814635 5250.56221035 -0.02839746 C5353.02962081 -0.0341128 5455.49703024 -0.03802969 5557.96444073 -0.03110444 C5560.04358585 -0.03096437 5562.12273097 -0.03082431 5564.26488048 -0.03068 C5609.62497494 -0.02758954 5654.98506929 -0.02363083 5700.3451636 -0.01881859 C5718.43590098 -0.01691092 5736.52663837 -0.01510911 5754.61737576 -0.0133382 C5756.5907604 -0.01314195 5758.56414504 -0.0129457 5760.59732922 -0.01274351 C5823.18088229 -0.00656885 5885.76443037 -0.0095747 5948.34798307 -0.01788851 C6009.97698993 -0.02603476 6071.60598896 -0.02504566 6133.23499495 -0.01078342 C6141.68012321 -0.00883007 6150.12525148 -0.00698073 6158.57037976 -0.00519354 C6160.22364625 -0.00483957 6161.87691275 -0.00448561 6163.58027822 -0.00412092 C6189.621728 0.00118299 6215.66316578 -0.00348991 6241.70461415 -0.0124576 C6267.19912238 -0.02103108 6292.69361118 -0.01891653 6318.1881175 -0.00544718 C6333.04637454 0.00208683 6347.90457646 0.00159835 6362.76283018 -0.01124961 C6372.63278027 -0.01895712 6382.5026885 -0.01560088 6392.37263419 -0.00362423 C6397.93982463 0.00283451 6403.50690644 0.00501204 6409.07409094 -0.00664962 C6445.8180124 -0.07839403 6482.48698305 1.43634385 6519.01230755 5.63086499 C6519.92599103 5.73280163 6520.8396745 5.83473828 6521.78104535 5.93976391 C6606.49012177 15.43294502 6690.43392656 35.21510812 6864.44980755 105.00586499 C6865.28090039 105.3976997 6866.11199322 105.78953442 6866.96827069 106.19324292 C6879.13635753 111.93937186 6891.09731585 118.00965536 6902.94980755 124.38086499 C6903.92041119 124.90208935 6903.92041119 124.90208935 6904.91062298 125.4338435 C6922.5540213 134.92902158 6939.88201754 144.88298844 6956.94980755 155.38086499 C6958.13268353 156.10523754 6958.13268353 156.10523754 6959.33945599 156.84424389 C6988.77928402 174.93276602 7017.2718617 194.59270566 7044.6646513 215.63477124 C7047.50961219 217.80861314 7050.38304043 219.94021102 7053.26230755 222.06836499 C7060.04114834 227.13312746 7066.56830083 232.50593803 7073.10898724 237.87207592 C7074.72193842 239.19409692 7076.33941249 240.51059575 7077.95762005 241.82617749 C7087.73211428 249.77685938 7097.36925562 257.86847752 7106.6959013 266.34180249 C7108.71863446 268.17172745 7110.7635019 269.96968226 7112.82480755 271.75586499 C7117.69700478 276.00566576 7122.45105673 280.3830551 7127.20137921 284.76787365 C7128.32864397 285.80781807 7129.45672629 286.84687733 7130.58580914 287.88484753 C7140.50575439 297.01194242 7150.1324172 306.40663617 7159.65049115 315.95117749 C7161.9717707 318.27787944 7164.29843418 320.59910327 7166.6255888 322.91992749 C7168.12981622 324.42481486 7169.63373386 325.93001196 7171.13730755 327.43555249 C7172.16090375 328.45611233 7172.16090375 328.45611233 7173.20517865 329.49728955 C7177.07675432 333.387589 7180.77467941 337.37745245 7184.35141888 341.54092968 C7187.12794662 344.73704305 7190.04652296 347.80029591 7192.94980755 350.88086499 C7197.71644773 355.9669834 7202.42235926 361.07949391 7206.94980755 366.38086499 C7207.87135045 367.44885997 7208.79326168 368.51653719 7209.71543255 369.58398999 C7215.90544712 376.76140518 7221.98153428 384.01741095 7227.94980755 391.38086499 C7228.9806155 392.64164321 7230.01189754 393.9020339 7231.04355755 395.16211499 C7237.82804343 403.45971646 7244.48451091 411.83112844 7250.94980755 420.38086499 C7251.50926068 421.11820874 7252.0687138 421.85555249 7252.64512005 422.61523999 C7254.54209822 425.11763671 7256.43411549 427.62371602 7258.32480755 430.13086499 C7259.18888226 431.2721687 7259.18888226 431.2721687 7260.07041302 432.43652905 C7270.86427559 446.80265319 7280.93777927 461.67324982 7290.88730755 476.63086499 C7291.45629773 477.48526165 7292.0252879 478.33965832 7292.6115202 479.2199458 C7300.9779457 491.79211586 7309.20654327 504.41271151 7316.94980755 517.38086499 C7317.45657025 518.22149487 7317.96333294 519.06212475 7318.48545208 519.92822827 C7354.01254424 578.88599843 7384.12066113 641.20942813 7407.14048138 706.10260571 C7407.9692618 708.43562882 7408.80395353 710.76648011 7409.63926068 713.09717358 C7440.87532691 800.49901448 7460.14591508 892.17141512 7467.69980755 993.06836499 C7467.75906415 993.91014294 7467.81832074 994.75192089 7467.87937298 995.61920727 C7469.4921846 1018.97849836 7470.15983118 1042.34338773 7470.13730755 1065.75586499 C7470.13640118 1067.5278526 7470.13640118 1067.5278526 7470.1354765 1069.33563793 C7470.04331942 1136.5125265 7463.63544898 1203.40502736 7450.94980755 1269.38086499 C7450.80154522 1270.15375866 7450.6532829 1270.92665234 7450.50052777 1271.72296704 C7442.90981263 1311.10051328 7432.96737556 1350.03882862 7420.6523222 1388.20294751 C7419.9363433 1390.42260652 7419.22466786 1392.64361618 7418.51328412 1394.8647517 C7397.43402753 1460.50041111 7370.0824498 1525.3782293 7335.33164349 1584.98438061 C7333.5780447 1588.02560424 7331.89392921 1591.10193929 7330.21274701 1594.18359936 C7315.44944621 1621.20611455 7298.49616555 1647.09964631 7280.94980755 1672.38086499 C7280.15727582 1673.52313549 7280.15727582 1673.52313549 7279.34873333 1674.68848217 C7268.44315285 1690.36196984 7257.17462462 1705.77152163 7245.27646771 1720.70703686 C7243.91146736 1722.42923826 7242.55985739 1724.16121322 7241.2115263 1725.89648999 C7235.81786672 1732.83051388 7230.28110976 1739.60831015 7224.57480755 1746.28711499 C7222.11064791 1749.17637819 7219.71319756 1752.11604957 7217.32480755 1755.06836499 C7213.7014626 1759.51990307 7209.93016883 1763.80468954 7206.06699505 1768.04883374 C7204.16929586 1770.13910388 7202.30247341 1772.25072613 7200.44980755 1774.38086499 C7196.33663583 1779.09642341 7192.15078039 1783.74352069 7187.94980755 1788.38086499 C7187.20400433 1789.21351879 7186.45820111 1790.0461726 7185.68979779 1790.90405835 C7175.95067711 1801.63467006 7165.65858224 1811.82464578 7155.40342083 1822.0576228 C7152.7218866 1824.73342397 7150.0449196 1827.41374264 7147.3692297 1830.09538639 C7145.27936297 1832.18888889 7143.18709319 1834.27997678 7141.09411755 1836.37037075 C7140.10635997 1837.3574693 7139.11932218 1838.34528873 7138.13307324 1839.33389462 C7133.10727724 1844.36908198 7128.05280012 1849.30470011 7122.64196148 1853.92682446 C7119.89621087 1856.28620359 7117.27708864 1858.77948106 7114.63730755 1861.25586499 C7109.76740943 1865.79113042 7104.75326231 1870.0676705 7099.5630888 1874.23633374 C7096.95133132 1876.37961454 7094.44615454 1878.60466829 7091.94980755 1880.88086499 C7087.29064731 1885.11646521 7082.4743625 1889.11475382 7077.57334271 1893.06641186 C7075.74851635 1894.54383519 7073.93287452 1896.03213267 7072.1177763 1897.52148999 C7064.20007331 1904.00799636 7056.18167883 1910.2950861 7047.94980755 1916.38086499 C7046.72747171 1917.30013403 7045.50617364 1918.2207841 7044.28574505 1919.14258374 C7040.18614914 1922.238721 7036.07068703 1925.31313133 7031.94980755 1928.38086499 C7031.30962689 1928.85942944 7030.66944623 1929.33799389 7030.00986615 1929.8310603 C6983.45081832 1964.51099082 6932.982212 1994.36796813 6881.29892865 2020.6748103 C6878.29991969 2022.20251657 6875.30613384 2023.73996063 6872.3130888 2025.27930249 C6833.63925311 2045.03861136 6793.16220023 2061.39681888 6752.15574017 2075.61517895 C6749.96120985 2076.37690721 6747.76840184 2077.14343618 6745.57578412 2077.91065014 C6661.66318182 2107.19078223 6573.49759696 2124.70173286 6476.82480755 2132.13086499 C6476.01121777 2132.19012158 6475.19762799 2132.24937817 6474.35938397 2132.31043042 C6445.75190208 2134.35515114 6417.18296408 2134.52792872 6388.51852537 2134.50887875 C6382.87384114 2134.50625918 6377.22915951 2134.50952256 6371.58447562 2134.51199072 C6361.65902968 2134.51553424 6351.73358918 2134.5153884 6341.80814303 2134.51280422 C6326.90629769 2134.5089454 6312.00445686 2134.51091391 6297.10261154 2134.51396925 C6271.58632526 2134.51903167 6246.07004089 2134.51934733 6220.5537543 2134.51710573 C6194.55674946 2134.51484147 6168.55974596 2134.51477452 6142.56274113 2134.51733844 C6140.91407878 2134.51749963 6139.26541642 2134.51766083 6137.5667946 2134.51782691 C6129.14883812 2134.51865943 6120.73088165 2134.51952629 6112.31292518 2134.52040444 C6050.82584339 2134.5267412 5989.33876225 2134.52811679 5927.85168019 2134.52698696 C5865.52151918 2134.52585524 5803.19135877 2134.52688594 5740.86119786 2134.53055943 C5736.88784215 2134.53079142 5732.91448644 2134.53102339 5728.94113073 2134.53125535 C5712.92064961 2134.53219488 5696.90016849 2134.53315117 5680.87968738 2134.53412654 C5635.71816686 2134.53687202 5590.55664633 2134.53925139 5545.39512578 2134.54137851 C5543.32553401 2134.54147606 5541.25594224 2134.54157361 5539.12363556 2134.54167411 C5421.39374201 2134.54718066 5303.66384843 2134.54748375 5185.93395478 2134.54789497 C5167.93606202 2134.54795822 5149.93816926 2134.54802474 5131.9402765 2134.54809552 C5127.42928668 2134.54811322 5122.91829685 2134.54813059 5118.40730703 2134.54814765 C5017.18806755 2134.54853535 4915.96882813 2134.55071365 4814.74958868 2134.5532779 C4792.16258694 2134.55384946 4769.57558519 2134.55440343 4746.98858344 2134.55495853 C4743.62550987 2134.55504122 4743.62550987 2134.55504122 4740.19449541 2134.55512557 C4726.58488634 2134.55546007 4712.97527727 2134.55579384 4699.3656682 2134.55612713 C4692.548015 2134.55629421 4685.73036179 2134.55646172 4678.91270859 2134.55662927 C4572.9082165 2134.55923121 4466.9037244 2134.56146149 4360.8992323 2134.56331147 C4358.58949692 2134.56335184 4356.27976155 2134.56339221 4353.90003419 2134.5634338 C4206.70475496 2134.56599711 4059.50947576 2134.56689628 3912.31419651 2134.56663347 C3905.07562044 2134.56662071 3897.83704438 2134.56660875 3890.59846831 2134.56659706 C3839.74401999 2134.56651471 3788.88957167 2134.566412 3738.03512334 2134.56630418 C3723.45392393 2134.56627341 3708.87272452 2134.56624334 3694.29152511 2134.56621336 C3682.12889845 2134.56618827 3669.96627179 2134.56616248 3657.80364512 2134.56613525 C3428.07622237 2134.56562381 3198.34879997 2134.56704192 2968.62137738 2134.57648266 C2966.20275198 2134.57658202 2963.78412657 2134.57668138 2961.29220949 2134.57678375 C2885.72283462 2134.5798951 2810.15345976 2134.58326159 2734.5840849 2134.58667553 C2657.04438916 2134.59017694 2579.50469342 2134.59364739 2501.96499768 2134.59693993 C2499.57752248 2134.59704146 2497.19004728 2134.59714298 2494.73022435 2134.59724758 C2345.21650724 2134.60359643 2195.70279024 2134.60751854 2046.189073 2134.60879792 C2043.87999304 2134.60881794 2041.57091309 2134.60883797 2039.19186101 2134.60885861 C1937.78439198 2134.60973392 1836.37692296 2134.61005371 1734.96945392 2134.60976772 C1694.17353602 2134.60965344 1653.37761812 2134.60959737 1612.58170022 2134.6095644 C1605.8175195 2134.609558 1599.05333877 2134.60954892 1592.28915805 2134.60953925 C1488.81706724 2134.60940275 1385.34497675 2134.61074927 1281.87288609 2134.61658443 C1279.64127764 2134.6167101 1277.40966918 2134.61683577 1275.11043623 2134.61696525 C1239.21201437 2134.61899429 1203.31359251 2134.62113831 1167.41517066 2134.62329206 C1065.5106669 2134.6294009 963.60616356 2134.63444498 861.70165959 2134.63232089 C859.63404146 2134.63227818 857.56642332 2134.63223546 855.43615009 2134.63219145 C810.32795837 2134.63123811 765.21976668 2134.6297223 720.111575 2134.62765474 C702.12132808 2134.62683841 684.13108116 2134.62609479 666.14083424 2134.62537373 C664.17840278 2134.62529308 662.21597133 2134.62521243 660.19407225 2134.62512933 C597.9502649 2134.62260558 535.70645994 2134.62622313 473.46265301 2134.63339155 C412.17124191 2134.64042427 350.87983414 2134.64138341 289.58842303 2134.63350461 C281.19089962 2134.63242599 272.7933762 2134.63141712 264.39585277 2134.63045006 C262.7518936 2134.63025804 261.10793442 2134.63006602 259.4141583 2134.62986819 C233.51153414 2134.62702452 207.60891553 2134.63084471 181.70629226 2134.63753066 C156.35214976 2134.64393829 130.99801577 2134.64322785 105.64387373 2134.63493678 C90.86433992 2134.63031493 76.08483093 2134.63105738 61.30529898 2134.64003082 C51.49112802 2134.64543891 41.67697561 2134.64348402 31.86280627 2134.63576014 C26.32484604 2134.63160018 20.78693454 2134.63032053 15.24897728 2134.63823991 C-20.16698654 2134.68550406 -55.57610022 2133.87804284 -90.86269245 2130.63086499 C-91.78524829 2130.54816357 -92.70780414 2130.46546215 -93.65831623 2130.38025463 C-183.29112069 2122.28911738 -270.99588149 2102.41889987 -527.05019245 1993.38086499 C-527.94154895 1992.86492779 -527.94154895 1992.86492779 -528.85091266 1992.33856762 C-547.32905737 1981.64000134 -565.35115293 1970.46423558 -583.00038776 1958.44727124 C-586.80477016 1955.86959811 -590.63922515 1953.33931136 -594.47572956 1950.80982006 C-604.09436391 1944.45765648 -613.50485539 1937.86328144 -622.79237995 1931.03711499 C-625.13269419 1929.32034468 -627.48147915 1927.61564825 -629.83144245 1925.91211499 C-638.86244569 1919.3420442 -647.6623492 1912.56888982 -656.2806612 1905.46680249 C-659.86230979 1902.5180741 -663.51016392 1899.66227531 -667.17519245 1896.81836499 C-672.59034134 1892.60222991 -677.82868469 1888.21127556 -683.01381549 1883.71607006 C-686.45048891 1880.73858445 -689.93420774 1877.84444744 -693.48769245 1875.00586499 C-698.74356626 1870.74518621 -703.66525747 1866.16771119 -708.57338581 1861.51611889 C-711.6048738 1858.64530757 -714.66262061 1855.82574301 -717.81923542 1853.09253491 C-730.32392948 1842.17915782 -742.1115099 1830.48267321 -753.82631549 1818.73511303 C-756.13871968 1816.41727661 -758.45652143 1814.10493195 -760.77480182 1811.79297436 C-762.27447201 1810.29264434 -763.7738325 1808.79200468 -765.2728487 1807.29102124 C-765.9521091 1806.61378506 -766.63136951 1805.93654888 -767.33121356 1805.2387904 C-771.22440277 1801.32667918 -774.93038969 1797.30478486 -778.53729877 1793.12734021 C-780.20879465 1791.19777557 -781.93351017 1789.33047681 -783.69862995 1787.48633374 C-784.30682575 1786.8465559 -784.91502155 1786.20677807 -785.54164752 1785.54761303 C-786.16321735 1784.89446118 -786.78478717 1784.24130932 -787.42519245 1783.56836499 C-792.50754782 1778.19184999 -797.33413399 1772.74210909 -801.9447237 1766.95508374 C-804.22220091 1764.1705615 -806.61331253 1761.52672695 -809.05019245 1758.88086499 C-813.9440476 1753.55099816 -818.50938007 1748.0117611 -823.05019245 1742.38086499 C-824.02427111 1741.19759949 -824.99960244 1740.01536446 -825.9759737 1738.83398999 C-834.00605417 1729.08843199 -841.6211902 1719.07009129 -849.14736042 1708.93213452 C-851.00977036 1706.43506191 -852.88802631 1703.95089487 -854.7728487 1701.47070874 C-899.09337121 1643.07046222 -937.16596936 1578.67086543 -967.45009479 1511.90039624 C-969.02828582 1508.4290502 -970.62578499 1504.96711599 -972.2259737 1501.50586499 C-1011.70610934 1415.51736812 -1038.04213706 1323.41192461 -1061.80019245 1150.44336499 C-1061.85944904 1149.71602154 -1061.91870563 1148.9886781 -1061.97975788 1148.23929394 C-1063.4631137 1129.73360947 -1064.21481641 1111.26457828 -1064.25331745 1092.70117749 C-1064.25614482 1091.75090554 -1064.2589722 1090.80063359 -1064.26188526 1089.82156552 C-1064.27674692 1084.76938928 -1064.28605219 1079.71724052 -1064.29042682 1074.66504467 C-1064.29476055 1070.60538038 -1064.3084709 1066.54593474 -1064.33144245 1062.48633374 C-1064.53707875 1025.33409161 -1063.05601631 988.31175378 -1058.80019245 951.38086499 C-1058.69725879 950.46414013 -1058.59432514 949.54741528 -1058.48827228 948.60291088 C-1047.76901076 853.54936019 -1024.65115494 759.9755415 -930.64931354 550.16895092 C-928.95620341 547.21699403 -927.30542999 544.24437329 -925.6634737 541.26367749 C-913.74650791 519.63447693 -900.53737078 498.98944025 -886.86269245 478.44336499 C-886.31737873 477.62342053 -885.772065 476.80347607 -885.21022663 475.95868481 C-875.22197823 460.9590224 -865.07479827 446.08125944 -854.05019245 431.81836499 C-852.68108635 430.03628638 -851.31260255 428.25372951 -849.9447237 426.47070874 C-849.28552936 425.61203198 -848.62633502 424.75335522 -847.9471651 423.86865795 C-845.67687664 420.89127837 -843.44504336 417.88686236 -841.21718463 414.87769116 C-836.22848483 408.14459286 -831.02822895 401.67258424 -825.5619112 395.32227124 C-823.3532946 392.73581976 -821.21844677 390.1135483 -819.11269245 387.44336499 C-811.54599119 377.91148774 -803.49674417 368.78514801 -795.2728487 359.81836499 C-793.37597481 357.73813773 -791.51626302 355.63529601 -789.67519245 353.50586499 C-785.154235 348.31358207 -780.46661138 343.27507283 -775.77626667 338.23633374 C-774.61482769 336.9878279 -773.45502451 335.73779855 -772.29677448 334.48633374 C-763.88630687 325.40475768 -755.29098695 316.51889088 -746.55019245 307.75586499 C-745.63060749 306.83168774 -744.71102252 305.90751049 -743.76357135 304.95532788 C-739.20882815 300.41094956 -734.59495329 296.01495575 -729.71230182 291.82471264 C-727.72643204 290.09961953 -725.87692221 288.2728351 -724.05019245 286.38086499 C-720.92173281 283.209965 -717.68163892 280.25516538 -714.3040987 277.35352124 C-712.09034959 275.41601118 -709.92776997 273.42942108 -707.77138385 271.42847241 C-702.56616441 266.60026265 -697.23609706 262.01830041 -691.7025362 257.56445874 C-689.05751608 255.38689431 -686.5180672 253.12767736 -683.98769245 250.81836499 C-680.05502112 247.24320923 -676.0178378 243.87195233 -671.8431612 240.58398999 C-669.81281909 238.98243342 -667.79614375 237.36968715 -665.7884737 235.74023999 C-656.1895714 227.96597718 -646.35012826 220.54002565 -636.44130573 213.16650952 C-634.26048396 211.53790727 -632.08859524 209.8984785 -629.9212862 208.25195874 C-582.13557776 171.9798684 -530.21405388 141.27539798 -476.9315401 113.86328686 C-475.04685287 112.89363588 -473.16364908 111.92109474 -471.28212604 110.94531811 C-395.19706069 71.5728158 -312.24681378 43.30620985 -113.42519245 5.69336499 C-112.58847003 5.59649395 -111.75174762 5.49962292 -110.88966999 5.3998164 C-74.04076297 1.18146431 -37.05997409 -0.07763007 0 0 Z " fill="#050505" transform="translate(1064.0501924462733,3199.6191350142544)"/>
<path d="M0 0 C5.69202525 0.00843803 11.38403061 -0.00102388 17.07605415 -0.00793084 C27.05547848 -0.01768243 37.03485309 -0.01652597 47.01427777 -0.00789674 C61.99687344 0.00499446 76.97943039 0.00022282 91.9620277 -0.00769284 C117.62397189 -0.02074693 143.2858979 -0.01965791 168.9478431 -0.0108209 C195.07497735 -0.00188416 221.20210004 0.00040027 247.32923534 -0.00519354 C248.98911261 -0.00554481 250.64898989 -0.00589608 252.35916647 -0.00625799 C260.83508843 -0.00808065 269.31101037 -0.01000732 277.78693231 -0.01196883 C339.62132538 -0.0260501 401.45571151 -0.02534049 463.29010525 -0.01712619 C525.95415146 -0.00884655 588.61819284 -0.00710643 651.28223935 -0.0133382 C654.24792429 -0.01362851 654.24792429 -0.01362851 657.27352206 -0.01392469 C675.39291254 -0.01569933 693.51230302 -0.01754104 711.6316935 -0.01946332 C757.06618705 -0.02427565 802.50068067 -0.02804371 847.93517438 -0.03110444 C850.01706089 -0.03124514 852.0989474 -0.03138585 854.24392139 -0.03153081 C956.85251827 -0.03836606 1059.46111429 -0.03375914 1162.06971112 -0.02802097 C1166.56414731 -0.02777006 1171.0585835 -0.02751917 1175.55301969 -0.02726828 C1178.89420921 -0.02708173 1178.89420921 -0.02708173 1182.30289751 -0.02689141 C1211.67746592 -0.02525185 1241.05203433 -0.02364202 1270.42660275 -0.02211153 C1272.67198111 -0.02199404 1274.91735948 -0.02187656 1277.23077961 -0.02175552 C1381.28399852 -0.01635177 1485.33721699 -0.01763725 1589.39043596 -0.0204029 C1600.74187527 -0.02070229 1612.09331459 -0.02098878 1623.44475391 -0.02127672 C1657.65936526 -0.02214849 1691.87397661 -0.02303931 1726.08858795 -0.02396952 C1830.4233652 -0.02680311 1934.75814245 -0.02860383 2039.09291974 -0.02951442 C2042.57756509 -0.02954533 2042.57756509 -0.02954533 2046.13260733 -0.02957686 C2196.58236052 -0.03089309 2347.03211323 -0.02759076 2497.48186627 -0.02096569 C2501.08458086 -0.02080766 2501.08458086 -0.02080766 2504.76007757 -0.02064643 C2585.20895226 -0.01711738 2665.65782693 -0.01334918 2746.10670161 -0.00955654 C2989.38637585 0.00190473 3232.66604836 0.00818566 3667.13208831 -0.00990253 C3747.56064182 -0.01369216 3827.98919532 -0.01743771 3908.41774884 -0.02096569 C3910.81888249 -0.02107142 3913.22001614 -0.02117716 3915.69391142 -0.02128609 C4066.06483947 -0.02790203 4216.43576718 -0.03084818 4366.80669537 -0.02951442 C4369.12902121 -0.02949416 4371.45134705 -0.02947389 4373.8440464 -0.029453 C4478.12089201 -0.02853284 4582.39773758 -0.02661793 4686.67458315 -0.02378292 C4720.8741038 -0.02285427 4755.07362446 -0.02197126 4789.27314512 -0.02110377 C4800.61803714 -0.02081579 4811.96292916 -0.02052373 4823.30782118 -0.02022219 C4927.36288512 -0.01746495 5031.41794849 -0.01666714 5135.47301236 -0.02211153 C5138.83894461 -0.0222869 5138.83894461 -0.0222869 5142.2728755 -0.02246582 C5171.63078214 -0.02400119 5200.98868878 -0.02562912 5230.34659542 -0.02726828 C5232.57229737 -0.02739252 5234.79799932 -0.02751676 5237.09114679 -0.02764477 C5241.58150131 -0.02789545 5246.07185583 -0.02814635 5250.56221035 -0.02839746 C5353.02962081 -0.0341128 5455.49703024 -0.03802969 5557.96444073 -0.03110444 C5560.04358585 -0.03096437 5562.12273097 -0.03082431 5564.26488048 -0.03068 C5609.62497494 -0.02758954 5654.98506929 -0.02363083 5700.3451636 -0.01881859 C5718.43590098 -0.01691092 5736.52663837 -0.01510911 5754.61737576 -0.0133382 C5756.5907604 -0.01314195 5758.56414504 -0.0129457 5760.59732922 -0.01274351 C5823.18088229 -0.00656885 5885.76443037 -0.0095747 5948.34798307 -0.01788851 C6009.97698993 -0.02603476 6071.60598896 -0.02504566 6133.23499495 -0.01078342 C6141.68012321 -0.00883007 6150.12525148 -0.00698073 6158.57037976 -0.00519354 C6160.22364625 -0.00483957 6161.87691275 -0.00448561 6163.58027822 -0.00412092 C6189.621728 0.00118299 6215.66316578 -0.00348991 6241.70461415 -0.0124576 C6267.19912238 -0.02103108 6292.69361118 -0.01891653 6318.1881175 -0.00544718 C6333.04637454 0.00208683 6347.90457646 0.00159835 6362.76283018 -0.01124961 C6372.63278027 -0.01895712 6382.5026885 -0.01560088 6392.37263419 -0.00362423 C6397.93982463 0.00283451 6403.50690644 0.00501204 6409.07409094 -0.00664962 C6445.8180124 -0.07839403 6482.48698305 1.43634385 6519.01230755 5.63086499 C6519.92599103 5.73280163 6520.8396745 5.83473828 6521.78104535 5.93976391 C6606.49012177 15.43294502 6690.43392656 35.21510812 6864.44980755 105.00586499 C6865.28090039 105.3976997 6866.11199322 105.78953442 6866.96827069 106.19324292 C6879.13635753 111.93937186 6891.09731585 118.00965536 6902.94980755 124.38086499 C6903.92041119 124.90208935 6903.92041119 124.90208935 6904.91062298 125.4338435 C6922.5540213 134.92902158 6939.88201754 144.88298844 6956.94980755 155.38086499 C6958.13268353 156.10523754 6958.13268353 156.10523754 6959.33945599 156.84424389 C6988.77928402 174.93276602 7017.2718617 194.59270566 7044.6646513 215.63477124 C7047.50961219 217.80861314 7050.38304043 219.94021102 7053.26230755 222.06836499 C7060.04114834 227.13312746 7066.56830083 232.50593803 7073.10898724 237.87207592 C7074.72193842 239.19409692 7076.33941249 240.51059575 7077.95762005 241.82617749 C7087.73211428 249.77685938 7097.36925562 257.86847752 7106.6959013 266.34180249 C7108.71863446 268.17172745 7110.7635019 269.96968226 7112.82480755 271.75586499 C7117.69700478 276.00566576 7122.45105673 280.3830551 7127.20137921 284.76787365 C7128.32864397 285.80781807 7129.45672629 286.84687733 7130.58580914 287.88484753 C7140.50575439 297.01194242 7150.1324172 306.40663617 7159.65049115 315.95117749 C7161.9717707 318.27787944 7164.29843418 320.59910327 7166.6255888 322.91992749 C7168.12981622 324.42481486 7169.63373386 325.93001196 7171.13730755 327.43555249 C7172.16090375 328.45611233 7172.16090375 328.45611233 7173.20517865 329.49728955 C7177.07675432 333.387589 7180.77467941 337.37745245 7184.35141888 341.54092968 C7187.12794662 344.73704305 7190.04652296 347.80029591 7192.94980755 350.88086499 C7197.71644773 355.9669834 7202.42235926 361.07949391 7206.94980755 366.38086499 C7207.87135045 367.44885997 7208.79326168 368.51653719 7209.71543255 369.58398999 C7215.90544712 376.76140518 7221.98153428 384.01741095 7227.94980755 391.38086499 C7228.9806155 392.64164321 7230.01189754 393.9020339 7231.04355755 395.16211499 C7237.82804343 403.45971646 7244.48451091 411.83112844 7250.94980755 420.38086499 C7251.50926068 421.11820874 7252.0687138 421.85555249 7252.64512005 422.61523999 C7254.54209822 425.11763671 7256.43411549 427.62371602 7258.32480755 430.13086499 C7259.18888226 431.2721687 7259.18888226 431.2721687 7260.07041302 432.43652905 C7270.86427559 446.80265319 7280.93777927 461.67324982 7290.88730755 476.63086499 C7291.45629773 477.48526165 7292.0252879 478.33965832 7292.6115202 479.2199458 C7300.9779457 491.79211586 7309.20654327 504.41271151 7316.94980755 517.38086499 C7317.45657025 518.22149487 7317.96333294 519.06212475 7318.48545208 519.92822827 C7354.01254424 578.88599843 7384.12066113 641.20942813 7407.14048138 706.10260571 C7407.9692618 708.43562882 7408.80395353 710.76648011 7409.63926068 713.09717358 C7440.87532691 800.49901448 7460.14591508 892.17141512 7467.69980755 993.06836499 C7467.75906415 993.91014294 7467.81832074 994.75192089 7467.87937298 995.61920727 C7469.4921846 1018.97849836 7470.15983118 1042.34338773 7470.13730755 1065.75586499 C7470.13640118 1067.5278526 7470.13640118 1067.5278526 7470.1354765 1069.33563793 C7470.04331942 1136.5125265 7463.63544898 1203.40502736 7450.94980755 1269.38086499 C7450.80154522 1270.15375866 7450.6532829 1270.92665234 7450.50052777 1271.72296704 C7442.90981263 1311.10051328 7432.96737556 1350.03882862 7420.6523222 1388.20294751 C7419.9363433 1390.42260652 7419.22466786 1392.64361618 7418.51328412 1394.8647517 C7397.43402753 1460.50041111 7370.0824498 1525.3782293 7335.33164349 1584.98438061 C7333.5780447 1588.02560424 7331.89392921 1591.10193929 7330.21274701 1594.18359936 C7315.44944621 1621.20611455 7298.49616555 1647.09964631 7280.94980755 1672.38086499 C7280.15727582 1673.52313549 7280.15727582 1673.52313549 7279.34873333 1674.68848217 C7268.44315285 1690.36196984 7257.17462462 1705.77152163 7245.27646771 1720.70703686 C7243.91146736 1722.42923826 7242.55985739 1724.16121322 7241.2115263 1725.89648999 C7235.81786672 1732.83051388 7230.28110976 1739.60831015 7224.57480755 1746.28711499 C7222.11064791 1749.17637819 7219.71319756 1752.11604957 7217.32480755 1755.06836499 C7213.7014626 1759.51990307 7209.93016883 1763.80468954 7206.06699505 1768.04883374 C7204.16929586 1770.13910388 7202.30247341 1772.25072613 7200.44980755 1774.38086499 C7196.33663583 1779.09642341 7192.15078039 1783.74352069 7187.94980755 1788.38086499 C7187.20400433 1789.21351879 7186.45820111 1790.0461726 7185.68979779 1790.90405835 C7175.95067711 1801.63467006 7165.65858224 1811.82464578 7155.40342083 1822.0576228 C7152.7218866 1824.73342397 7150.0449196 1827.41374264 7147.3692297 1830.09538639 C7145.27936297 1832.18888889 7143.18709319 1834.27997678 7141.09411755 1836.37037075 C7140.10635997 1837.3574693 7139.11932218 1838.34528873 7138.13307324 1839.33389462 C7133.10727724 1844.36908198 7128.05280012 1849.30470011 7122.64196148 1853.92682446 C7119.89621087 1856.28620359 7117.27708864 1858.77948106 7114.63730755 1861.25586499 C7109.76740943 1865.79113042 7104.75326231 1870.0676705 7099.5630888 1874.23633374 C7096.95133132 1876.37961454 7094.44615454 1878.60466829 7091.94980755 1880.88086499 C7087.29064731 1885.11646521 7082.4743625 1889.11475382 7077.57334271 1893.06641186 C7075.74851635 1894.54383519 7073.93287452 1896.03213267 7072.1177763 1897.52148999 C7064.20007331 1904.00799636 7056.18167883 1910.2950861 7047.94980755 1916.38086499 C7046.72747171 1917.30013403 7045.50617364 1918.2207841 7044.28574505 1919.14258374 C7040.18614914 1922.238721 7036.07068703 1925.31313133 7031.94980755 1928.38086499 C7031.30962689 1928.85942944 7030.66944623 1929.33799389 7030.00986615 1929.8310603 C6983.45081832 1964.51099082 6932.982212 1994.36796813 6881.29892865 2020.6748103 C6878.29991969 2022.20251657 6875.30613384 2023.73996063 6872.3130888 2025.27930249 C6833.63925311 2045.03861136 6793.16220023 2061.39681888 6752.15574017 2075.61517895 C6749.96120985 2076.37690721 6747.76840184 2077.14343618 6745.57578412 2077.91065014 C6661.66318182 2107.19078223 6573.49759696 2124.70173286 6476.82480755 2132.13086499 C6476.01121777 2132.19012158 6475.19762799 2132.24937817 6474.35938397 2132.31043042 C6445.75190208 2134.35515114 6417.18296408 2134.52792872 6388.51852537 2134.50887875 C6382.87384114 2134.50625918 6377.22915951 2134.50952256 6371.58447562 2134.51199072 C6361.65902968 2134.51553424 6351.73358918 2134.5153884 6341.80814303 2134.51280422 C6326.90629769 2134.5089454 6312.00445686 2134.51091391 6297.10261154 2134.51396925 C6271.58632526 2134.51903167 6246.07004089 2134.51934733 6220.5537543 2134.51710573 C6194.55674946 2134.51484147 6168.55974596 2134.51477452 6142.56274113 2134.51733844 C6140.91407878 2134.51749963 6139.26541642 2134.51766083 6137.5667946 2134.51782691 C6129.14883812 2134.51865943 6120.73088165 2134.51952629 6112.31292518 2134.52040444 C6050.82584339 2134.5267412 5989.33876225 2134.52811679 5927.85168019 2134.52698696 C5865.52151918 2134.52585524 5803.19135877 2134.52688594 5740.86119786 2134.53055943 C5736.88784215 2134.53079142 5732.91448644 2134.53102339 5728.94113073 2134.53125535 C5712.92064961 2134.53219488 5696.90016849 2134.53315117 5680.87968738 2134.53412654 C5635.71816686 2134.53687202 5590.55664633 2134.53925139 5545.39512578 2134.54137851 C5543.32553401 2134.54147606 5541.25594224 2134.54157361 5539.12363556 2134.54167411 C5421.39374201 2134.54718066 5303.66384843 2134.54748375 5185.93395478 2134.54789497 C5167.93606202 2134.54795822 5149.93816926 2134.54802474 5131.9402765 2134.54809552 C5127.42928668 2134.54811322 5122.91829685 2134.54813059 5118.40730703 2134.54814765 C5017.18806755 2134.54853535 4915.96882813 2134.55071365 4814.74958868 2134.5532779 C4792.16258694 2134.55384946 4769.57558519 2134.55440343 4746.98858344 2134.55495853 C4743.62550987 2134.55504122 4743.62550987 2134.55504122 4740.19449541 2134.55512557 C4726.58488634 2134.55546007 4712.97527727 2134.55579384 4699.3656682 2134.55612713 C4692.548015 2134.55629421 4685.73036179 2134.55646172 4678.91270859 2134.55662927 C4572.9082165 2134.55923121 4466.9037244 2134.56146149 4360.8992323 2134.56331147 C4358.58949692 2134.56335184 4356.27976155 2134.56339221 4353.90003419 2134.5634338 C4206.70475496 2134.56599711 4059.50947576 2134.56689628 3912.31419651 2134.56663347 C3905.07562044 2134.56662071 3897.83704438 2134.56660875 3890.59846831 2134.56659706 C3839.74401999 2134.56651471 3788.88957167 2134.566412 3738.03512334 2134.56630418 C3723.45392393 2134.56627341 3708.87272452 2134.56624334 3694.29152511 2134.56621336 C3682.12889845 2134.56618827 3669.96627179 2134.56616248 3657.80364512 2134.56613525 C3428.07622237 2134.56562381 3198.34879997 2134.56704192 2968.62137738 2134.57648266 C2966.20275198 2134.57658202 2963.78412657 2134.57668138 2961.29220949 2134.57678375 C2885.72283462 2134.5798951 2810.15345976 2134.58326159 2734.5840849 2134.58667553 C2657.04438916 2134.59017694 2579.50469342 2134.59364739 2501.96499768 2134.59693993 C2499.57752248 2134.59704146 2497.19004728 2134.59714298 2494.73022435 2134.59724758 C2345.21650724 2134.60359643 2195.70279024 2134.60751854 2046.189073 2134.60879792 C2043.87999304 2134.60881794 2041.57091309 2134.60883797 2039.19186101 2134.60885861 C1937.78439198 2134.60973392 1836.37692296 2134.61005371 1734.96945392 2134.60976772 C1694.17353602 2134.60965344 1653.37761812 2134.60959737 1612.58170022 2134.6095644 C1605.8175195 2134.609558 1599.05333877 2134.60954892 1592.28915805 2134.60953925 C1488.81706724 2134.60940275 1385.34497675 2134.61074927 1281.87288609 2134.61658443 C1279.64127764 2134.6167101 1277.40966918 2134.61683577 1275.11043623 2134.61696525 C1239.21201437 2134.61899429 1203.31359251 2134.62113831 1167.41517066 2134.62329206 C1065.5106669 2134.6294009 963.60616356 2134.63444498 861.70165959 2134.63232089 C859.63404146 2134.63227818 857.56642332 2134.63223546 855.43615009 2134.63219145 C810.32795837 2134.63123811 765.21976668 2134.6297223 720.111575 2134.62765474 C702.12132808 2134.62683841 684.13108116 2134.62609479 666.14083424 2134.62537373 C664.17840278 2134.62529308 662.21597133 2134.62521243 660.19407225 2134.62512933 C597.9502649 2134.62260558 535.70645994 2134.62622313 473.46265301 2134.63339155 C412.17124191 2134.64042427 350.87983414 2134.64138341 289.58842303 2134.63350461 C281.19089962 2134.63242599 272.7933762 2134.63141712 264.39585277 2134.63045006 C262.7518936 2134.63025804 261.10793442 2134.63006602 259.4141583 2134.62986819 C233.51153414 2134.62702452 207.60891553 2134.63084471 181.70629226 2134.63753066 C156.35214976 2134.64393829 130.99801577 2134.64322785 105.64387373 2134.63493678 C90.86433992 2134.63031493 76.08483093 2134.63105738 61.30529898 2134.64003082 C51.49112802 2134.64543891 41.67697561 2134.64348402 31.86280627 2134.63576014 C26.32484604 2134.63160018 20.78693454 2134.63032053 15.24897728 2134.63823991 C-20.16698654 2134.68550406 -55.57610022 2133.87804284 -90.86269245 2130.63086499 C-91.78524829 2130.54816357 -92.70780414 2130.46546215 -93.65831623 2130.38025463 C-183.29112069 2122.28911738 -270.99588149 2102.41889987 -527.05019245 1993.38086499 C-527.94154895 1992.86492779 -527.94154895 1992.86492779 -528.85091266 1992.33856762 C-547.32905737 1981.64000134 -565.35115293 1970.46423558 -583.00038776 1958.44727124 C-586.80477016 1955.86959811 -590.63922515 1953.33931136 -594.47572956 1950.80982006 C-604.09436391 1944.45765648 -613.50485539 1937.86328144 -622.79237995 1931.03711499 C-625.13269419 1929.32034468 -627.48147915 1927.61564825 -629.83144245 1925.91211499 C-638.86244569 1919.3420442 -647.6623492 1912.56888982 -656.2806612 1905.46680249 C-659.86230979 1902.5180741 -663.51016392 1899.66227531 -667.17519245 1896.81836499 C-672.59034134 1892.60222991 -677.82868469 1888.21127556 -683.01381549 1883.71607006 C-686.45048891 1880.73858445 -689.93420774 1877.84444744 -693.48769245 1875.00586499 C-698.74356626 1870.74518621 -703.66525747 1866.16771119 -708.57338581 1861.51611889 C-711.6048738 1858.64530757 -714.66262061 1855.82574301 -717.81923542 1853.09253491 C-730.32392948 1842.17915782 -742.1115099 1830.48267321 -753.82631549 1818.73511303 C-756.13871968 1816.41727661 -758.45652143 1814.10493195 -760.77480182 1811.79297436 C-762.27447201 1810.29264434 -763.7738325 1808.79200468 -765.2728487 1807.29102124 C-765.9521091 1806.61378506 -766.63136951 1805.93654888 -767.33121356 1805.2387904 C-771.22440277 1801.32667918 -774.93038969 1797.30478486 -778.53729877 1793.12734021 C-780.20879465 1791.19777557 -781.93351017 1789.33047681 -783.69862995 1787.48633374 C-784.30682575 1786.8465559 -784.91502155 1786.20677807 -785.54164752 1785.54761303 C-786.16321735 1784.89446118 -786.78478717 1784.24130932 -787.42519245 1783.56836499 C-792.50754782 1778.19184999 -797.33413399 1772.74210909 -801.9447237 1766.95508374 C-804.22220091 1764.1705615 -806.61331253 1761.52672695 -809.05019245 1758.88086499 C-813.9440476 1753.55099816 -818.50938007 1748.0117611 -823.05019245 1742.38086499 C-824.02427111 1741.19759949 -824.99960244 1740.01536446 -825.9759737 1738.83398999 C-834.00605417 1729.08843199 -841.6211902 1719.07009129 -849.14736042 1708.93213452 C-851.00977036 1706.43506191 -852.88802631 1703.95089487 -854.7728487 1701.47070874 C-899.09337121 1643.07046222 -937.16596936 1578.67086543 -967.45009479 1511.90039624 C-969.02828582 1508.4290502 -970.62578499 1504.96711599 -972.2259737 1501.50586499 C-1011.70610934 1415.51736812 -1038.04213706 1323.41192461 -1061.80019245 1150.44336499 C-1061.85944904 1149.71602154 -1061.91870563 1148.9886781 -1061.97975788 1148.23929394 C-1063.4631137 1129.73360947 -1064.21481641 1111.26457828 -1064.25331745 1092.70117749 C-1064.25614482 1091.75090554 -1064.2589722 1090.80063359 -1064.26188526 1089.82156552 C-1064.27674692 1084.76938928 -1064.28605219 1079.71724052 -1064.29042682 1074.66504467 C-1064.29476055 1070.60538038 -1064.3084709 1066.54593474 -1064.33144245 1062.48633374 C-1064.53707875 1025.33409161 -1063.05601631 988.31175378 -1058.80019245 951.38086499 C-1058.69725879 950.46414013 -1058.59432514 949.54741528 -1058.48827228 948.60291088 C-1047.76901076 853.54936019 -1024.65115494 759.9755415 -930.64931354 550.16895092 C-928.95620341 547.21699403 -927.30542999 544.24437329 -925.6634737 541.26367749 C-913.74650791 519.63447693 -900.53737078 498.98944025 -886.86269245 478.44336499 C-886.31737873 477.62342053 -885.772065 476.80347607 -885.21022663 475.95868481 C-875.22197823 460.9590224 -865.07479827 446.08125944 -854.05019245 431.81836499 C-852.68108635 430.03628638 -851.31260255 428.25372951 -849.9447237 426.47070874 C-849.28552936 425.61203198 -848.62633502 424.75335522 -847.9471651 423.86865795 C-845.67687664 420.89127837 -843.44504336 417.88686236 -841.21718463 414.87769116 C-836.22848483 408.14459286 -831.02822895 401.67258424 -825.5619112 395.32227124 C-823.3532946 392.73581976 -821.21844677 390.1135483 -819.11269245 387.44336499 C-811.54599119 377.91148774 -803.49674417 368.78514801 -795.2728487 359.81836499 C-793.37597481 357.73813773 -791.51626302 355.63529601 -789.67519245 353.50586499 C-785.154235 348.31358207 -780.46661138 343.27507283 -775.77626667 338.23633374 C-774.61482769 336.9878279 -773.45502451 335.73779855 -772.29677448 334.48633374 C-763.88630687 325.40475768 -755.29098695 316.51889088 -746.55019245 307.75586499 C-745.63060749 306.83168774 -744.71102252 305.90751049 -743.76357135 304.95532788 C-739.20882815 300.41094956 -734.59495329 296.01495575 -729.71230182 291.82471264 C-727.72643204 290.09961953 -725.87692221 288.2728351 -724.05019245 286.38086499 C-720.92173281 283.209965 -717.68163892 280.25516538 -714.3040987 277.35352124 C-712.09034959 275.41601118 -709.92776997 273.42942108 -707.77138385 271.42847241 C-702.56616441 266.60026265 -697.23609706 262.01830041 -691.7025362 257.56445874 C-689.05751608 255.38689431 -686.5180672 253.12767736 -683.98769245 250.81836499 C-680.05502112 247.24320923 -676.0178378 243.87195233 -671.8431612 240.58398999 C-669.81281909 238.98243342 -667.79614375 237.36968715 -665.7884737 235.74023999 C-656.1895714 227.96597718 -646.35012826 220.54002565 -636.44130573 213.16650952 C-634.26048396 211.53790727 -632.08859524 209.8984785 -629.9212862 208.25195874 C-582.13557776 171.9798684 -530.21405388 141.27539798 -476.9315401 113.86328686 C-475.04685287 112.89363588 -473.16364908 111.92109474 -471.28212604 110.94531811 C-395.19706069 71.5728158 -312.24681378 43.30620985 -113.42519245 5.69336499 C-112.58847003 5.59649395 -111.75174762 5.49962292 -110.88966999 5.3998164 C-74.04076297 1.18146431 -37.05997409 -0.07763007 0 0 Z " fill="#050505" transform="translate(1064.0501924462733,-0.3808649857455748)"/>
</svg>
