<?xml version="1.0" encoding="UTF-8"?>
<!DOCTYPE svg PUBLIC "-//W3C//DTD SVG 1.1//EN" "http://www.w3.org/Graphics/SVG/1.1/DTD/svg11.dtd">
<svg xmlns="http://www.w3.org/2000/svg" version="1.1" width="500px" height="500px" style="shape-rendering:geometricPrecision; text-rendering:geometricPrecision; image-rendering:optimizeQuality; fill-rule:evenodd; clip-rule:evenodd" xmlns:xlink="http://www.w3.org/1999/xlink">
<g><path style="opacity:1" fill="#da0201" d="M 235.5,70.5 C 247.528,70.3345 259.528,70.8345 271.5,72C 277.905,73.358 284.238,74.5247 290.5,75.5C 296.462,76.7093 302.129,78.7093 307.5,81.5C 310.748,84.4994 314.415,86.9994 318.5,89C 321.022,90.3409 323.689,91.1743 326.5,91.5C 357.02,111.186 377.353,138.519 387.5,173.5C 389.978,186.542 391.645,199.708 392.5,213C 391.103,221.728 390.436,230.561 390.5,239.5C 390.451,243.078 389.785,246.411 388.5,249.5C 386.766,252.636 385.099,255.969 383.5,259.5C 382.52,262.086 382.187,264.753 382.5,267.5C 377.395,281.045 370.228,293.379 361,304.5C 348.392,326.727 335.559,348.727 322.5,370.5C 319.69,373.393 316.856,376.393 314,379.5C 313.667,378.833 313.333,378.167 313,377.5C 311.812,378.563 311.312,379.897 311.5,381.5C 312.5,381.5 313.5,381.5 314.5,381.5C 313.833,383.5 313.167,385.5 312.5,387.5C 311.325,387.281 310.325,387.614 309.5,388.5C 308.626,390.747 308.292,393.08 308.5,395.5C 304.323,404.668 299.323,413.335 293.5,421.5C 292.603,422.598 291.77,422.598 291,421.5C 290.51,422.793 290.343,424.127 290.5,425.5C 289.5,425.5 288.5,425.5 287.5,425.5C 287.007,427.806 286.674,430.139 286.5,432.5C 285.5,432.5 284.5,432.5 283.5,432.5C 282.97,436.664 281.97,440.664 280.5,444.5C 274.083,456.337 267.416,468.004 260.5,479.5C 258.983,479.511 257.816,480.177 257,481.5C 257.145,484.923 255.645,486.923 252.5,487.5C 252.5,489.167 252.5,490.833 252.5,492.5C 251.5,492.5 250.5,492.5 249.5,492.5C 249.649,493.552 249.483,494.552 249,495.5C 248.584,493.45 247.417,492.116 245.5,491.5C 223.249,453.333 201.249,415 179.5,376.5C 178.828,371.987 176.995,367.987 174,364.5C 173.329,363.748 172.496,363.414 171.5,363.5C 156.452,334.956 139.952,307.289 122,280.5C 115.183,267.217 110.683,253.217 108.5,238.5C 106.979,226.556 106.312,214.556 106.5,202.5C 107.87,175.712 116.537,151.712 132.5,130.5C 135.333,126.835 138.666,123.668 142.5,121C 144.741,121.271 146.741,120.271 148.5,118C 147.833,117.667 147.167,117.333 146.5,117C 147.227,115.601 147.727,114.101 148,112.5C 151.074,110.929 153.24,108.596 154.5,105.5C 159.181,102.499 163.848,99.4985 168.5,96.5C 170.055,96.722 171.389,97.3887 172.5,98.5C 173.051,96.5868 173.218,94.5868 173,92.5C 175.052,91.2766 177.219,90.2766 179.5,89.5C 181.421,88.6761 182.754,87.3428 183.5,85.5C 185.509,83.9348 187.843,82.9348 190.5,82.5C 197.956,80.0163 205.289,77.3496 212.5,74.5C 219.778,71.6474 227.445,70.3141 235.5,70.5 Z"/></g>
<g><path style="opacity:1" fill="#a50d0e" d="M 235.5,70.5 C 244.991,69.342 254.658,69.1754 264.5,70C 273.548,70.6414 282.214,72.4747 290.5,75.5C 284.238,74.5247 277.905,73.358 271.5,72C 259.528,70.8345 247.528,70.3345 235.5,70.5 Z"/></g>
<g><path style="opacity:1" fill="#a40d11" d="M 212.5,74.5 C 205.289,77.3496 197.956,80.0163 190.5,82.5C 197.251,78.4695 204.585,75.8028 212.5,74.5 Z"/></g>
<g><path style="opacity:1" fill="#a60d0f" d="M 307.5,81.5 C 314.315,84.0726 320.649,87.4059 326.5,91.5C 323.689,91.1743 321.022,90.3409 318.5,89C 314.415,86.9994 310.748,84.4994 307.5,81.5 Z"/></g>
<g><path style="opacity:1" fill="#bc090c" d="M 183.5,85.5 C 182.754,87.3428 181.421,88.6761 179.5,89.5C 177.219,90.2766 175.052,91.2766 173,92.5C 173.218,94.5868 173.051,96.5868 172.5,98.5C 171.389,97.3887 170.055,96.722 168.5,96.5C 163.848,99.4985 159.181,102.499 154.5,105.5C 163.061,97.2798 172.727,90.6131 183.5,85.5 Z"/></g>
<g><path style="opacity:1" fill="#c2070c" d="M 154.5,105.5 C 153.24,108.596 151.074,110.929 148,112.5C 147.727,114.101 147.227,115.601 146.5,117C 147.167,117.333 147.833,117.667 148.5,118C 146.741,120.271 144.741,121.271 142.5,121C 138.666,123.668 135.333,126.835 132.5,130.5C 138.409,120.924 145.742,112.59 154.5,105.5 Z"/></g>
<g><path style="opacity:1" fill="#fefaf9" d="M 163.5,183.5 C 162.058,188.255 161.392,193.255 161.5,198.5C 161.502,201.686 161.835,204.686 162.5,207.5C 164.391,228.694 172.724,246.861 187.5,262C 183.167,266.333 178.833,270.667 174.5,275C 173.833,275.667 173.167,275.667 172.5,275C 161.507,263.513 153.173,250.346 147.5,235.5C 140.585,214.312 139.919,192.979 145.5,171.5C 150.293,152.904 159.46,136.904 173,123.5C 177.833,128.333 182.667,133.167 187.5,138C 174.483,150.518 166.483,165.684 163.5,183.5 Z"/></g>
<g><path style="opacity:1" fill="#fdfaf9" d="M 331.5,129.5 C 350.616,152.586 359.283,179.252 357.5,209.5C 355.694,216.639 354.194,223.972 353,231.5C 349.528,238.769 346.362,246.102 343.5,253.5C 340.022,258.434 336.522,263.434 333,268.5C 330.651,271.017 328.151,273.35 325.5,275.5C 320.681,271.182 316.015,266.682 311.5,262C 323.79,249.587 331.457,234.754 334.5,217.5C 337.235,209.155 338.068,200.489 337,191.5C 336.187,182.217 333.687,173.55 329.5,165.5C 325.742,154.977 319.742,145.977 311.5,138.5C 316.13,133.369 320.963,128.369 326,123.5C 327.331,125.996 329.164,127.996 331.5,129.5 Z"/></g>
<g><path style="opacity:1" fill="#d0231d" d="M 331.5,129.5 C 329.164,127.996 327.331,125.996 326,123.5C 320.963,128.369 316.13,133.369 311.5,138.5C 310.903,138.265 310.57,137.765 310.5,137C 311.834,134.614 313.167,132.28 314.5,130C 311.772,129.361 311.272,128.194 313,126.5C 317.148,129.229 319.648,128.395 320.5,124C 323.002,122.568 325.502,122.402 328,123.5C 329.421,125.405 330.588,127.405 331.5,129.5 Z"/></g>
<g><path style="opacity:1" fill="#fdf9f8" d="M 212.5,176.5 C 204.096,190.181 203.263,204.514 210,219.5C 211.697,222.02 213.53,224.353 215.5,226.5C 215.859,228.371 216.859,229.871 218.5,231C 214.167,235.333 209.833,239.667 205.5,244C 204.833,244.667 204.167,244.667 203.5,244C 194.281,235.063 188.614,224.23 186.5,211.5C 184.943,201.422 185.276,191.422 187.5,181.5C 191.089,171.394 196.589,162.394 204,154.5C 208.333,158.833 212.667,163.167 217,167.5C 217.667,168.5 217.667,169.5 217,170.5C 214.898,172.095 213.398,174.095 212.5,176.5 Z"/></g>
<g><path style="opacity:1" fill="#fef9f8" d="M 309.5,175.5 C 316.302,196.106 314.302,215.772 303.5,234.5C 301.263,238.41 298.263,241.743 294.5,244.5C 289.681,240.182 285.015,235.682 280.5,231C 284.061,227.37 286.728,223.203 288.5,218.5C 296.304,202.157 294.638,186.824 283.5,172.5C 282.71,171.206 281.71,170.039 280.5,169C 285.333,164.167 290.167,159.333 295,154.5C 300.843,160.87 305.676,167.87 309.5,175.5 Z"/></g>
<g><path style="opacity:1" fill="#c1231c" d="M 256.5,180.5 C 248.222,178.116 240.889,179.783 234.5,185.5C 234.5,184.167 234.5,182.833 234.5,181.5C 239.427,180.208 244.427,179.208 249.5,178.5C 251.5,178.667 253.5,178.833 255.5,179C 256.056,179.383 256.389,179.883 256.5,180.5 Z"/></g>
<g><path style="opacity:1" fill="#fefaf9" d="M 256.5,180.5 C 270.029,188.097 273.029,198.764 265.5,212.5C 263.825,214.002 261.992,215.335 260,216.5C 259.5,225.16 259.334,233.827 259.5,242.5C 252.833,243.833 246.167,243.833 239.5,242.5C 239.666,233.827 239.5,225.16 239,216.5C 230.135,210.236 227.468,201.903 231,191.5C 232.394,189.612 233.56,187.612 234.5,185.5C 240.889,179.783 248.222,178.116 256.5,180.5 Z"/></g>
<g><path style="opacity:1" fill="#dd5c59" d="M 163.5,183.5 C 162.834,191.483 162.501,199.483 162.5,207.5C 161.835,204.686 161.502,201.686 161.5,198.5C 161.392,193.255 162.058,188.255 163.5,183.5 Z"/></g>
<g><path style="opacity:1" fill="#c92820" d="M 283.5,172.5 C 294.638,186.824 296.304,202.157 288.5,218.5C 289.499,213.94 290.332,209.273 291,204.5C 291.739,198.442 291.406,192.442 290,186.5C 289.07,183.638 287.403,181.305 285,179.5C 284.023,177.26 283.523,174.927 283.5,172.5 Z"/></g>
<g><path style="opacity:1" fill="#ca372e" d="M 329.5,165.5 C 333.687,173.55 336.187,182.217 337,191.5C 338.068,200.489 337.235,209.155 334.5,217.5C 335.507,208.856 335.673,200.189 335,191.5C 333.578,182.686 331.745,174.019 329.5,165.5 Z"/></g>
<g><path style="opacity:1" fill="#c12c24" d="M 187.5,181.5 C 185.276,191.422 184.943,201.422 186.5,211.5C 185.732,210.737 185.232,209.737 185,208.5C 184.333,201.167 184.333,193.833 185,186.5C 185.099,184.347 185.933,182.681 187.5,181.5 Z"/></g>
<g><path style="opacity:1" fill="#ca1f1b" d="M 212.5,176.5 C 211.373,178.998 210.706,181.664 210.5,184.5C 210.63,186.375 210.963,188.208 211.5,190C 211.167,190.5 210.833,191 210.5,191.5C 209.749,190.624 209.249,189.624 209,188.5C 208.698,192.611 207.864,196.611 206.5,200.5C 207.838,206.534 209.338,212.534 211,218.5C 213.284,220.736 214.784,223.402 215.5,226.5C 213.53,224.353 211.697,222.02 210,219.5C 203.263,204.514 204.096,190.181 212.5,176.5 Z"/></g>
<g><path style="opacity:1" fill="#ca1d17" d="M 234.5,185.5 C 233.56,187.612 232.394,189.612 231,191.5C 227.468,201.903 230.135,210.236 239,216.5C 239.5,225.16 239.666,233.827 239.5,242.5C 238.671,234.343 238.171,226.01 238,217.5C 234.876,216.259 231.709,215.092 228.5,214C 228.807,212.318 229.14,210.652 229.5,209C 228.642,205.553 227.642,202.22 226.5,199C 227.376,195.477 228.709,192.143 230.5,189C 230.355,188.228 230.022,187.561 229.5,187C 230.905,185.731 232.571,185.231 234.5,185.5 Z"/></g>
<g><path style="opacity:1" fill="#cc1711" d="M 309.5,175.5 C 310.222,175.918 310.722,176.584 311,177.5C 311.333,177.167 311.667,176.833 312,176.5C 313.89,189.984 315.057,203.484 315.5,217C 313.883,219.37 312.883,222.036 312.5,225C 313.33,226.465 313.496,227.965 313,229.5C 311.644,228.62 310.144,228.286 308.5,228.5C 307.946,231.391 306.279,233.391 303.5,234.5C 314.302,215.772 316.302,196.106 309.5,175.5 Z"/></g>
<g><path style="opacity:1" fill="#c62921" d="M 145.5,171.5 C 139.919,192.979 140.585,214.312 147.5,235.5C 146.542,235.047 145.708,234.381 145,233.5C 143.577,228.186 142.244,222.853 141,217.5C 140.167,205.486 140.334,193.486 141.5,181.5C 142.222,177.7 143.555,174.367 145.5,171.5 Z"/></g>
<g><path style="opacity:1" fill="#b91413" d="M 265.5,212.5 C 265.5,213.833 265.5,215.167 265.5,216.5C 263.856,216.286 262.356,216.62 261,217.5C 260.829,226.01 260.329,234.343 259.5,242.5C 259.334,233.827 259.5,225.16 260,216.5C 261.992,215.335 263.825,214.002 265.5,212.5 Z"/></g>
<g><path style="opacity:1" fill="#c72921" d="M 357.5,209.5 C 357.388,217.68 356.222,225.68 354,233.5C 351.199,240.779 347.699,247.446 343.5,253.5C 346.362,246.102 349.528,238.769 353,231.5C 354.194,223.972 355.694,216.639 357.5,209.5 Z"/></g>
<g><path style="opacity:1" fill="#990d0e" d="M 106.5,202.5 C 106.312,214.556 106.979,226.556 108.5,238.5C 105.596,226.605 104.929,214.605 106.5,202.5 Z"/></g>
<g><path style="opacity:1" fill="#af0d0c" d="M 387.5,173.5 C 393.014,190.639 394.848,208.306 393,226.5C 392.728,231.076 391.895,235.409 390.5,239.5C 390.436,230.561 391.103,221.728 392.5,213C 391.645,199.708 389.978,186.542 387.5,173.5 Z"/></g>
<g><path style="opacity:1" fill="#bb1c14" d="M 388.5,249.5 C 387.473,255.915 385.473,261.915 382.5,267.5C 382.187,264.753 382.52,262.086 383.5,259.5C 385.099,255.969 386.766,252.636 388.5,249.5 Z"/></g>
<g><path style="opacity:1" fill="#fefdfc" d="M 285.5,277.5 C 277.316,277.174 269.316,277.508 261.5,278.5C 260.503,297.326 260.17,316.326 260.5,335.5C 252.833,335.5 245.167,335.5 237.5,335.5C 237.5,316.167 237.5,296.833 237.5,277.5C 229.5,277.5 221.5,277.5 213.5,277.5C 213.5,271.5 213.5,265.5 213.5,259.5C 237.5,259.5 261.5,259.5 285.5,259.5C 285.5,265.5 285.5,271.5 285.5,277.5 Z"/></g>
<g><path style="opacity:1" fill="#c82e24" d="M 213.5,277.5 C 221.5,277.5 229.5,277.5 237.5,277.5C 237.5,296.833 237.5,316.167 237.5,335.5C 245.316,336.492 253.316,336.826 261.5,336.5C 261.5,317.167 261.5,297.833 261.5,278.5C 269.316,277.508 277.316,277.174 285.5,277.5C 278.24,279.465 270.573,280.132 262.5,279.5C 262.179,298.547 262.513,317.547 263.5,336.5C 262.975,337.192 262.308,337.692 261.5,338C 253.631,338.213 245.798,338.713 238,339.5C 236.5,339.333 235.667,338.5 235.5,337C 236.482,317.867 236.815,298.701 236.5,279.5C 228.427,280.132 220.76,279.465 213.5,277.5 Z"/></g>
<g><path style="opacity:1" fill="#ffcece" d="M 261.5,278.5 C 261.5,297.833 261.5,317.167 261.5,336.5C 253.316,336.826 245.316,336.492 237.5,335.5C 245.167,335.5 252.833,335.5 260.5,335.5C 260.17,316.326 260.503,297.326 261.5,278.5 Z"/></g>
<g><path style="opacity:1" fill="#a70e0d" d="M 171.5,363.5 C 172.496,363.414 173.329,363.748 174,364.5C 176.995,367.987 178.828,371.987 179.5,376.5C 176.868,372.189 174.201,367.856 171.5,363.5 Z"/></g>
<g><path style="opacity:1" fill="#c10908" d="M 322.5,370.5 C 318.59,379.326 313.923,387.659 308.5,395.5C 308.292,393.08 308.626,390.747 309.5,388.5C 310.325,387.614 311.325,387.281 312.5,387.5C 313.167,385.5 313.833,383.5 314.5,381.5C 313.5,381.5 312.5,381.5 311.5,381.5C 311.312,379.897 311.812,378.563 313,377.5C 313.333,378.167 313.667,378.833 314,379.5C 316.856,376.393 319.69,373.393 322.5,370.5 Z"/></g>
<g><path style="opacity:1" fill="#c00909" d="M 293.5,421.5 C 289.923,429.661 285.589,437.328 280.5,444.5C 281.97,440.664 282.97,436.664 283.5,432.5C 284.5,432.5 285.5,432.5 286.5,432.5C 286.674,430.139 287.007,427.806 287.5,425.5C 288.5,425.5 289.5,425.5 290.5,425.5C 290.343,424.127 290.51,422.793 291,421.5C 291.77,422.598 292.603,422.598 293.5,421.5 Z"/></g>
<g><path style="opacity:1" fill="#b50b0f" d="M 260.5,479.5 C 257.575,485.847 254.242,492.014 250.5,498C 247.707,497.006 246.04,494.839 245.5,491.5C 247.417,492.116 248.584,493.45 249,495.5C 249.483,494.552 249.649,493.552 249.5,492.5C 250.5,492.5 251.5,492.5 252.5,492.5C 252.5,490.833 252.5,489.167 252.5,487.5C 255.645,486.923 257.145,484.923 257,481.5C 257.816,480.177 258.983,479.511 260.5,479.5 Z"/></g>
</svg>
