<?xml version="1.0" encoding="UTF-8"?>
<svg version="1.1" xmlns="http://www.w3.org/2000/svg" width="500" height="500">
<path d="M0 0 C1.04414063 0.55429688 2.08828125 1.10859375 3.1640625 1.6796875 C23.84820681 13.08598344 41.96815156 30.7241944 54 51 C54.43393066 51.72912598 54.86786133 52.45825195 55.31494141 53.20947266 C75.27580106 87.42075874 79.69385407 126.58820602 70.1875 164.8125 C65.55993777 181.06195517 58.39508319 196.37499253 48.49291992 210.08691406 C43.503818 217.02741284 39.24573572 224.3091035 35.0625 231.75 C34.39174339 232.93516046 33.72052066 234.12005723 33.04882812 235.3046875 C31.70475208 237.67629168 30.36325514 240.04932761 29.0234375 242.42333984 C26.98789383 246.0264592 24.93488496 249.6194499 22.87890625 253.2109375 C20.02814264 258.19217222 17.19948043 263.18533687 14.38647461 268.18798828 C8.73683296 278.23159287 2.98453882 288.21021778 -2.83618164 298.15551758 C-11.34578522 312.70305074 -19.64743378 327.36697226 -27.92504883 342.04736328 C-32.78931944 350.65877914 -37.73381353 359.22298567 -42.68579102 367.78417969 C-46.42474216 374.2532899 -50.12564674 380.74079312 -53.77026367 387.26342773 C-58.41792681 395.56353945 -63.21662991 403.77761446 -68 412 C-71.59396479 410.80201174 -71.73619291 410.17627605 -73.42578125 406.93359375 C-73.8851709 406.06822998 -74.34456055 405.20286621 -74.81787109 404.3112793 C-75.31109863 403.36293213 -75.80432617 402.41458496 -76.3125 401.4375 C-80.66891509 393.25030552 -85.16450513 385.17629828 -89.875 377.1875 C-97.57721943 364.09200868 -105.0112297 350.84937818 -112.35302734 337.54882812 C-114.99073932 332.77514839 -117.71067394 328.0614179 -120.5 323.375 C-124.50374335 316.61050054 -128.39732234 309.78902807 -132.25 302.9375 C-136.73897227 294.95563114 -141.30298527 287.02321193 -145.9375 279.125 C-150.72115948 270.96850241 -155.40030311 262.76158527 -160 254.5 C-172.56383754 231.59351926 -172.56383754 231.59351926 -186.75 209.6875 C-208.72614251 178.58366863 -217.45602677 140.67098484 -211.34277344 103.05688477 C-206.59495404 76.28207709 -195.40197216 52.89692891 -178 32 C-177.48695313 31.36320312 -176.97390625 30.72640625 -176.4453125 30.0703125 C-172.70674702 25.52340854 -168.54355157 21.73194427 -164 18 C-163.49936035 17.5870166 -162.9987207 17.1740332 -162.48291016 16.74853516 C-116.68696849 -20.81199316 -52.48180496 -29.05920753 0 0 Z " fill="#B20203" transform="translate(319,87)"/>
<path d="M0 0 C38.94 0 77.88 0 118 0 C116.68690565 3.28273587 115.59704731 5.87749701 113.828125 8.8203125 C113.4141748 9.51471436 113.00022461 10.20911621 112.57373047 10.92456055 C111.91848389 12.01377808 111.91848389 12.01377808 111.25 13.125 C107.87547121 18.79442538 104.59559732 24.49005665 101.46875 30.30078125 C98.79146901 35.22099711 95.98023548 40.06561276 93.19091797 44.92285156 C91.90661009 47.1628867 90.62671051 49.40539856 89.34765625 51.6484375 C84.93830693 59.37930077 80.52101915 67.10535123 76.0703125 74.8125 C75.7371553 75.38945618 75.40399811 75.96641235 75.06074524 76.56085205 C73.42972641 79.38474093 71.79745897 82.20790038 70.16381836 85.03027344 C66.71877836 90.98951187 63.31579482 96.96780035 60 103 C59.34 103 58.68 103 58 103 C57.64921387 102.36835938 57.29842773 101.73671875 56.93701172 101.0859375 C49.74668929 88.15407158 42.4615702 75.2946015 34.97216797 62.53320312 C31.57212054 56.72857032 28.24030732 50.89518659 25 45 C17.37512439 31.13353683 9.4047955 17.43360729 1.07519531 3.97851562 C0 2 0 2 0 0 Z " fill="#FEFDFC" transform="translate(191,358)"/>
<path d="M0 0 C0.83877686 -0.00555908 1.67755371 -0.01111816 2.54174805 -0.0168457 C13.25933991 0.10593489 21.53348005 2.40831252 29.9375 9.3125 C35.94902337 15.79650096 39.51323389 22.86180966 41.9375 31.3125 C42.12957031 31.92222656 42.32164062 32.53195313 42.51953125 33.16015625 C44.95758481 45.71499281 42.92367234 60.54027298 35.9375 71.3125 C30.01965791 79.63545439 21.79496519 85.21822014 11.90234375 87.84375 C-1.93675711 90.03175014 -14.50514856 88.54548968 -26.0625 80.3125 C-26.92875 79.735 -27.795 79.1575 -28.6875 78.5625 C-37.91310067 69.82245726 -41.12143165 58.61365519 -41.58666992 46.25756836 C-41.75713342 33.43806217 -40.32323537 22.83240557 -31.6875 12.75 C-22.031639 3.04641645 -13.66420694 0.07647643 0 0 Z " fill="#FDF7F7" transform="translate(296.0625,113.6875)"/>
<path d="M0 0 C1.19206055 -0.01160156 1.19206055 -0.01160156 2.40820312 -0.0234375 C12.86016703 0.01058028 20.65504694 2.16148521 28.5625 9.25 C34.08653934 15.81050858 36.5625 21.61112066 36.5625 30.25 C30.9525 30.25 25.3425 30.25 19.5625 30.25 C18.9746875 28.1771875 18.9746875 28.1771875 18.375 26.0625 C16.40778902 20.23406561 13.66783936 17.40197814 8.25 14.4375 C1.68207243 12.32240468 -3.93791506 12.77909149 -10.33203125 15.15625 C-14.07510819 17.10070556 -16.21314709 19.72078353 -18.4375 23.25 C-18.85128906 23.90226562 -19.26507813 24.55453125 -19.69140625 25.2265625 C-24.77432585 35.25071752 -23.96220494 49.70064728 -20.6875 60.1875 C-18.28038768 66.15076433 -15.47456653 70.43544344 -9.62109375 73.51953125 C-3.56142771 75.54664672 3.26412984 75.21782839 9.0625 72.5625 C15.68407558 68.61423133 17.44434595 63.34581607 19.5625 56.25 C13.9525 56.25 8.3425 56.25 2.5625 56.25 C2.5625 51.96 2.5625 47.67 2.5625 43.25 C13.4525 43.25 24.3425 43.25 35.5625 43.25 C35.5625 57.44 35.5625 71.63 35.5625 86.25 C31.2725 86.25 26.9825 86.25 22.5625 86.25 C21.5725 81.3 21.5725 81.3 20.5625 76.25 C20.17191406 77.17039062 19.78132813 78.09078125 19.37890625 79.0390625 C16.23548873 84.59581348 11.51867672 86.41492137 5.5625 88.25 C-6.18918211 90.11829908 -16.67266552 88.29244864 -26.69921875 81.78125 C-35.50897596 74.93481011 -39.98563341 65.07652159 -41.4375 54.25 C-41.70791764 50.74343149 -41.76298335 47.26589131 -41.75 43.75 C-41.76611328 42.87730469 -41.78222656 42.00460938 -41.79882812 41.10546875 C-41.80795505 28.78412224 -37.46449946 19.38156564 -29.0625 10.5 C-20.44801466 2.33990509 -11.67117054 -0.11303797 0 0 Z " fill="#FDF8F7" transform="translate(205.4375,113.75)"/>
<path d="M0 0 C6.24250106 5.13272309 9.12136306 11.25969329 11 19 C12.02267881 30.34459977 11.51652208 42.69146606 4.25 52.0625 C-1.0572594 57.35659002 -6.00773737 59.23149117 -13.5 59.5 C-20.2248382 59.25121986 -25.00350166 58.1538487 -29.7109375 53.19921875 C-37.91993939 42.8879115 -38.73429032 31.86367856 -38 19 C-36.64185815 11.05832309 -32.25254047 5.08991345 -26.5 -0.375 C-17.80824273 -6.02464222 -8.64763008 -5.15823549 0 0 Z " fill="#B20203" transform="translate(310,130)"/>
<path d="M0 0 C8.1365625 -0.0928125 8.1365625 -0.0928125 16.4375 -0.1875 C18.13060303 -0.21481201 19.82370605 -0.24212402 21.56811523 -0.27026367 C39.10919057 -0.43771174 39.10919057 -0.43771174 44.56396484 4.38183594 C45.9375 5.9375 45.9375 5.9375 48 9 C48.433125 9.61875 48.86625 10.2375 49.3125 10.875 C50.82484404 15.54951795 50.47256981 19.6610522 48.875 24.1875 C46.57836531 27.63245204 44.35238601 29.5748697 41 32 C40.34 32 39.68 32 39 32 C39.61053223 32.59155884 39.61053223 32.59155884 40.23339844 33.19506836 C44.8104641 38.0009873 46.21336821 42.09371438 47.25 48.5625 C47.54372601 50.21019987 47.84053389 51.85735374 48.140625 53.50390625 C48.25954102 54.22392822 48.37845703 54.9439502 48.50097656 55.68579102 C49.11097755 58.51465569 50.08487287 61.25461862 51 64 C46.38 64 41.76 64 37 64 C35.14265061 58.26644319 33.67517563 53.0286422 33.30859375 47.0078125 C32.93911318 44.60385031 32.33455918 43.0380808 31 41 C26.10378915 37.45367906 18.71729248 38.31762736 13 38 C13 46.58 13 55.16 13 64 C8.71 64 4.42 64 0 64 C0 42.88 0 21.76 0 0 Z " fill="#FCF4F4" transform="translate(257,220)"/>
<path d="M0 0 C4.29 0 8.58 0 13 0 C13 8.91 13 17.82 13 27 C22.57 27 32.14 27 42 27 C42 18.09 42 9.18 42 0 C46.29 0 50.58 0 55 0 C55 21.12 55 42.24 55 64 C50.71 64 46.42 64 42 64 C42 55.42 42 46.84 42 38 C32.43 38 22.86 38 13 38 C13 46.58 13 55.16 13 64 C8.71 64 4.42 64 0 64 C0 42.88 0 21.76 0 0 Z " fill="#FCF4F4" transform="translate(131,220)"/>
<path d="M0 0 C14.85 0 29.7 0 45 0 C45 3.3 45 6.6 45 10 C34.11 10 23.22 10 12 10 C12 15.61 12 21.22 12 27 C22.23 27 32.46 27 43 27 C43 30.3 43 33.6 43 37 C33.1 37 23.2 37 13 37 C13 42.28 13 47.56 13 53 C23.89 53 34.78 53 46 53 C46 56.63 46 60.26 46 64 C30.82 64 15.64 64 0 64 C0 42.88 0 21.76 0 0 Z " fill="#FDF6F5" transform="translate(318,220)"/>
<path d="M0 0 C15.18 0 30.36 0 46 0 C46 3.3 46 6.6 46 10 C35.11 10 24.22 10 13 10 C13 15.61 13 21.22 13 27 C22.9 27 32.8 27 43 27 C43 30.3 43 33.6 43 37 C33.1 37 23.2 37 13 37 C13 42.61 13 48.22 13 54 C23.89 54 34.78 54 46 54 C46 57.3 46 60.6 46 64 C30.82 64 15.64 64 0 64 C0 42.88 0 21.76 0 0 Z " fill="#FEFBFB" transform="translate(200,220)"/>
<path d="M0 0 C2.536875 -0.061875 5.07375 -0.12375 7.6875 -0.1875 C8.47729248 -0.21481201 9.26708496 -0.24212402 10.08081055 -0.27026367 C14.62928046 -0.32374802 17.38608784 0.23089848 21 3 C23 5 23 5 23.3125 8.875 C23.24121642 11.68051797 23.04683491 12.91302088 21.6875 15.4375 C19.00238383 17.92371868 16.48653384 18.1239589 12.98828125 18.09765625 C11.96408081 18.09390991 11.96408081 18.09390991 10.91918945 18.09008789 C10.05898193 18.08098389 9.19877441 18.07187988 8.3125 18.0625 C4.1978125 18.0315625 4.1978125 18.0315625 0 18 C0 12.06 0 6.12 0 0 Z " fill="#AF0708" transform="translate(270,230)"/>
<path d="M0 0 C1.1226828 -0.00014603 2.2453656 -0.00029205 3.40206909 -0.0004425 C7.09757446 0.00025185 10.79302887 0.00802192 14.48852539 0.01586914 C17.05684888 0.01773501 19.62517273 0.01915812 22.1934967 0.02015686 C28.25294517 0.02357949 34.31237274 0.03145385 40.37181336 0.04150635 C47.27389746 0.05270677 54.17598245 0.05818782 61.07807338 0.06320179 C75.26828587 0.07363758 89.45848311 0.09121248 103.64868164 0.11352539 C104.64868164 3.11352539 104.64868164 3.11352539 103.72290039 5.19946289 C103.2652832 5.95485352 102.80766602 6.71024414 102.33618164 7.48852539 C100.48735794 10.6366613 98.87423339 13.65969774 97.64868164 17.11352539 C96.98868164 17.11352539 96.32868164 17.11352539 95.64868164 17.11352539 C97.20353212 11.45952364 99.29674492 8.47662415 102.64868164 3.11352539 C63.70868164 3.11352539 24.76868164 3.11352539 -15.35131836 3.11352539 C-15.35131836 3.77352539 -15.35131836 4.43352539 -15.35131836 5.11352539 C-16.01131836 5.11352539 -16.67131836 5.11352539 -17.35131836 5.11352539 C-17.68131836 3.79352539 -18.01131836 2.47352539 -18.35131836 1.11352539 C-12.21197441 0.0291086 -6.22439764 -0.02130938 0 0 Z " fill="#B32223" transform="translate(206.351318359375,354.886474609375)"/>
<path d="M0 0 C15.18 0 30.36 0 46 0 C46 3.3 46 6.6 46 10 C35.11 10 24.22 10 13 10 C13 9.67 13 9.34 13 9 C28.345 8.505 28.345 8.505 44 8 C43.505 5.03 43.505 5.03 43 2 C29.14 1.67 15.28 1.34 1 1 C1 21.79 1 42.58 1 64 C0.67 64 0.34 64 0 64 C0 42.88 0 21.76 0 0 Z " fill="#FBCECD" transform="translate(200,220)"/>
<path d="M0 0 C0.33 0 0.66 0 1 0 C1 8.25 1 16.5 1 25 C13.375 24.505 13.375 24.505 26 24 C26.33 16.08 26.66 8.16 27 0 C27.66 0 28.32 0 29 0 C29 8.91 29 17.82 29 27 C19.43 27 9.86 27 0 27 C0 18.09 0 9.18 0 0 Z " fill="#9A0A0C" transform="translate(144,220)"/>
<path d="M0 0 C38.94 0 77.88 0 118 0 C117.34 1.65 116.68 3.3 116 5 C115.505 3.02 115.505 3.02 115 1 C78.04 1 41.08 1 3 1 C3.33 1.99 3.66 2.98 4 4 C3.01 4.495 3.01 4.495 2 5 C1.34 3.35 0.68 1.7 0 0 Z " fill="#FEEEF0" transform="translate(191,358)"/>
<path d="M0 0 C0.66 0 1.32 0 2 0 C2.08121924 1.60332791 2.13929134 3.20784026 2.1875 4.8125 C2.23970703 6.15248047 2.23970703 6.15248047 2.29296875 7.51953125 C2 10 2 10 0.86914062 11.63671875 C-1.83605938 13.60979044 -3.87970237 13.3397225 -7.19921875 13.29296875 C-8.40771484 13.28330078 -9.61621094 13.27363281 -10.86132812 13.26367188 C-12.12396484 13.23853516 -13.38660156 13.21339844 -14.6875 13.1875 C-16.59885742 13.16719727 -16.59885742 13.16719727 -18.54882812 13.14648438 C-21.69964057 13.11108199 -24.84961045 13.0616979 -28 13 C-27.7215625 13.928125 -27.7215625 13.928125 -27.4375 14.875 C-27 17 -27 17 -28 19 C-28.0689472 20.37342831 -28.08467708 21.75002102 -28.0625 23.125 C-28.041875 24.40375 -28.02125 25.6825 -28 27 C-28.66 27 -29.32 27 -30 27 C-30 21.72 -30 16.44 -30 11 C-20.1 11 -10.2 11 0 11 C0 7.37 0 3.74 0 0 Z " fill="#9A0B0D" transform="translate(361,246)"/>
<path d="M0 0 C4.56439984 0.63078078 8.37241154 2.4369799 12.4375 4.5 C13.13472168 4.85167236 13.83194336 5.20334473 14.55029297 5.56567383 C24.01470934 10.43715914 32.90932073 16.06339661 41 23 C40.01 23.66 39.02 24.32 38 25 C38 24.01 38 23.02 38 22 C35.36 21.67 32.72 21.34 30 21 C30.33 19.68 30.66 18.36 31 17 C27.41247258 15.13448574 23.72187807 13.57464072 20 12 C20 11.34 20 10.68 20 10 C19.43796875 9.86722656 18.8759375 9.73445313 18.296875 9.59765625 C15.90633847 8.97562889 13.58964225 8.22884959 11.25 7.4375 C10.45078125 7.16808594 9.6515625 6.89867188 8.828125 6.62109375 C8.22484375 6.41613281 7.6215625 6.21117188 7 6 C7 5.34 7 4.68 7 4 C6.030625 3.71125 5.06125 3.4225 4.0625 3.125 C1 2 1 2 0 0 Z " fill="#8A090A" transform="translate(300,79)"/>
<path d="M0 0 C0.33 0 0.66 0 1 0 C2.27417854 14.65305322 2.10068236 29.30347377 2 44 C-1.42689636 45.14229879 -3.61102218 44.90861076 -7.1875 44.5625 C-8.27417969 44.46066406 -9.36085937 44.35882813 -10.48046875 44.25390625 C-11.31191406 44.17011719 -12.14335937 44.08632812 -13 44 C-13 43.67 -13 43.34 -13 43 C-8.71 43 -4.42 43 0 43 C0 28.81 0 14.62 0 0 Z " fill="#BC4D4D" transform="translate(241,157)"/>
<path d="M0 0 C0.33 0 0.66 0 1 0 C1 16.83 1 33.66 1 51 C0.67 51 0.34 51 0 51 C-3.22190052 34.14255621 -2.94400084 16.87543341 0 0 Z " fill="#880709" transform="translate(108,188)"/>
<path d="M0 0 C1.55078125 1.17578125 1.55078125 1.17578125 3 3 C2.85546875 5.48046875 2.85546875 5.48046875 2.1875 8.1875 C1.97480469 9.08855469 1.76210938 9.98960937 1.54296875 10.91796875 C1.36378906 11.60503906 1.18460937 12.29210937 1 13 C0.34 13 -0.32 13 -1 13 C-1 9.7 -1 6.4 -1 3 C-15.85 3 -30.7 3 -46 3 C-46 2.67 -46 2.34 -46 2 C-45.43845718 1.98969254 -44.87691437 1.97938507 -44.2983551 1.96876526 C-38.47506534 1.86092315 -32.65193736 1.74630792 -26.82885742 1.62768555 C-24.65311047 1.58426493 -22.47732786 1.54259529 -20.30151367 1.50268555 C-17.18136832 1.44515498 -14.06140367 1.38141177 -10.94140625 1.31640625 C-9.96224747 1.29969376 -8.98308868 1.28298126 -7.97425842 1.26576233 C-7.07340012 1.24581711 -6.17254181 1.22587189 -5.24438477 1.20532227 C-4.04858543 1.18200584 -4.04858543 1.18200584 -2.82862854 1.15821838 C-0.98148618 1.19599335 -0.98148618 1.19599335 0 0 Z " fill="#940F0F" transform="translate(364,217)"/>
<path d="M0 0 C0.66 0.33 1.32 0.66 2 1 C1.67515625 2.27230469 1.3503125 3.54460937 1.015625 4.85546875 C-0.13325161 10.0467266 -0.30447106 15.01178454 -0.25 20.3125 C-0.24613281 21.22733154 -0.24226562 22.14216309 -0.23828125 23.0847168 C-0.15153323 29.89262941 0.4583277 36.3515382 2 43 C0.68 42.34 -0.64 41.68 -2 41 C-2.14301599 36.49765878 -2.2854161 31.99529866 -2.42724609 27.49291992 C-2.47557937 25.96133905 -2.52408078 24.42976347 -2.57275391 22.89819336 C-2.64269534 20.69646555 -2.71203162 18.49471939 -2.78125 16.29296875 C-2.80312378 15.60849167 -2.82499756 14.92401459 -2.84753418 14.21879578 C-2.93323076 11.47747521 -3 8.74289945 -3 6 C-2.34 5.34 -1.68 4.68 -1 4 C-0.3574765 1.93125966 -0.3574765 1.93125966 0 0 Z " fill="#AA2D2E" transform="translate(165,137)"/>
<path d="M0 0 C2.38519477 3.57779215 2.38472137 6.23175377 2.375 10.375 C2.37338867 11.08237305 2.37177734 11.78974609 2.37011719 12.51855469 C2.19632034 20.11449944 1.11561295 28.56600324 -4.140625 34.359375 C-4.75421875 34.90078125 -5.3678125 35.4421875 -6 36 C-5.67 33.69 -5.34 31.38 -5 29 C-4.34 29 -3.68 29 -3 29 C-2.7834375 28.071875 -2.7834375 28.071875 -2.5625 27.125 C-2 25 -2 25 -1 23 C-0.84733388 21.26131256 -0.75067404 19.51752499 -0.68359375 17.7734375 C-0.64169922 16.7421875 -0.59980469 15.7109375 -0.55664062 14.6484375 C-0.51732422 13.56820312 -0.47800781 12.48796875 -0.4375 11.375 C-0.37272461 9.74304688 -0.37272461 9.74304688 -0.30664062 8.078125 C-0.2003547 5.3855483 -0.09831943 2.69287747 0 0 Z " fill="#A12123" transform="translate(319,146)"/>
<path d="M0 0 C3 1 3 1 4.5 3.546875 C4.995 4.60390625 5.49 5.6609375 6 6.75 C7.83753471 10.63562027 9.785983 14.31847893 12 18 C12.6875 20.3125 12.6875 20.3125 13 22 C13.66 22 14.32 22 15 22 C15.66 23.98 16.32 25.96 17 28 C17.66 28 18.32 28 19 28 C19 29.32 19 30.64 19 32 C19.66 32 20.32 32 21 32 C20.67 33.32 20.34 34.64 20 36 C19.60731934 35.32533691 19.21463867 34.65067383 18.81005859 33.95556641 C16.99905362 30.84498043 15.18703256 27.73498747 13.375 24.625 C12.75753906 23.56410156 12.14007813 22.50320313 11.50390625 21.41015625 C10.89160156 20.35957031 10.27929688 19.30898438 9.6484375 18.2265625 C8.73723145 16.66276855 8.73723145 16.66276855 7.80761719 15.06738281 C5.60408361 11.32816133 3.339899 7.62785546 1.05322266 3.93896484 C0 2 0 2 0 0 Z " fill="#8D090B" transform="translate(160,342)"/>
<path d="M0 0 C0.33 0 0.66 0 1 0 C1.3770412 6.15833966 0.81667547 10.36664906 -2 16 C-2.350625 16.94875 -2.70125 17.8975 -3.0625 18.875 C-4 21 -4 21 -6 22 C-6.33 22.99 -6.66 23.98 -7 25 C-8.84765625 26.60546875 -8.84765625 26.60546875 -11.0625 28.1875 C-11.79597656 28.71730469 -12.52945312 29.24710938 -13.28515625 29.79296875 C-13.85105469 30.19128906 -14.41695313 30.58960938 -15 31 C-15.66 30.67 -16.32 30.34 -17 30 C-16.55269531 29.64808594 -16.10539062 29.29617187 -15.64453125 28.93359375 C-6.41121694 21.39338185 -1.29950191 12.02039268 0 0 Z " fill="#A1171A" transform="translate(338,165)"/>
<path d="M0 0 C2.38175199 1.40999718 4.1974846 3.01894864 5.953125 5.15625 C4.963125 5.65125 4.963125 5.65125 3.953125 6.15625 C3.953125 5.49625 3.953125 4.83625 3.953125 4.15625 C3.375625 4.40375 2.798125 4.65125 2.203125 4.90625 C1.460625 4.98875 0.718125 5.07125 -0.046875 5.15625 C-1.42250354 3.86659824 -2.75453893 2.52935707 -4.046875 1.15625 C-7.69684413 -0.21675241 -11.44446654 0.05807955 -15.296875 0.09375 C-17.19179688 0.10728516 -17.19179688 0.10728516 -19.125 0.12109375 C-20.08921875 0.13269531 -21.0534375 0.14429688 -22.046875 0.15625 C-14.83855237 -4.64929842 -7.50359509 -3.67308851 0 0 Z " fill="#AA2022" transform="translate(308.046875,128.84375)"/>
<path d="M0 0 C13.2 0 26.4 0 40 0 C40.66 1.32 41.32 2.64 42 4 C40.30037109 3.52433594 40.30037109 3.52433594 38.56640625 3.0390625 C31.14173177 1.38913484 23.50891351 1.53036084 15.9375 1.375 C14.38865172 1.33674483 12.83982301 1.29768894 11.29101562 1.2578125 C7.52750579 1.16263921 3.76389683 1.07831503 0 1 C0 0.67 0 0.34 0 0 Z " fill="#970F11" transform="translate(258,219)"/>
<path d="M0 0 C2.2212569 2.07197566 3.77354751 4.07911996 5.26171875 6.72265625 C5.65810547 7.42583984 6.05449219 8.12902344 6.46289062 8.85351562 C6.86701172 9.58248047 7.27113281 10.31144531 7.6875 11.0625 C8.10322266 11.79533203 8.51894531 12.52816406 8.94726562 13.28320312 C12 18.74203356 12 18.74203356 12 21 C10.68 20.34 9.36 19.68 8 19 C8.33 18.01 8.66 17.02 9 16 C8.34 16 7.68 16 7 16 C6.34 13.69 5.68 11.38 5 9 C4.34 9 3.68 9 3 9 C3 8.01 3 7.02 3 6 C2.01 5.67 1.02 5.34 0 5 C0 3.35 0 1.7 0 0 Z " fill="#A4171A" transform="translate(218,407)"/>
<path d="M0 0 C0.66 0 1.32 0 2 0 C2.40992188 0.85464844 2.81984375 1.70929688 3.2421875 2.58984375 C3.78101563 3.69457031 4.31984375 4.79929687 4.875 5.9375 C5.40867188 7.03964844 5.94234375 8.14179688 6.4921875 9.27734375 C7.71659845 12.09404511 7.71659845 12.09404511 10 13 C10.66 11.68 11.32 10.36 12 9 C12.33 9.66 12.66 10.32 13 11 C11.5625 13.625 11.5625 13.625 10 16 C5.96374924 14.65458308 5.14552047 12.14052535 3.3125 8.5625 C2.99216797 7.96373047 2.67183594 7.36496094 2.34179688 6.74804688 C0 2.28914579 0 2.28914579 0 0 Z " fill="#8A0A0E" transform="translate(241,483)"/>
<path d="M0 0 C0.33 1.32 0.66 2.64 1 4 C0.34 4 -0.32 4 -1 4 C-1.020625 4.70125 -1.04125 5.4025 -1.0625 6.125 C-2.44979209 10.3793624 -5.51624172 12.35307139 -9 15 C-7.61219205 11.10993227 -5.7847773 8.03441292 -3.375 4.6875 C-2.74335938 3.80449219 -2.11171875 2.92148438 -1.4609375 2.01171875 C-0.97882813 1.34785156 -0.49671875 0.68398437 0 0 Z " fill="#8E070A" transform="translate(134,128)"/>
<path d="M0 0 C0.66 0 1.32 0 2 0 C2 1.98 2 3.96 2 6 C1.01 5.67 0.02 5.34 -1 5 C-1.33 5.99 -1.66 6.98 -2 8 C-6.62 7.34 -11.24 6.68 -16 6 C-16 5.67 -16 5.34 -16 5 C-14.51886719 4.96132813 -14.51886719 4.96132813 -13.0078125 4.921875 C-11.72648437 4.86515625 -10.44515625 4.8084375 -9.125 4.75 C-7.84882813 4.70359375 -6.57265625 4.6571875 -5.2578125 4.609375 C-1.90811895 4.37444944 -1.90811895 4.37444944 -0.5546875 1.953125 C-0.37164062 1.30859375 -0.18859375 0.6640625 0 0 Z " fill="#A90709" transform="translate(310,279)"/>
<path d="M0 0 C1.875 0.1875 1.875 0.1875 4 1 C5.78284814 4.29826907 6 6.1774751 6 10 C6.99 10.33 7.98 10.66 9 11 C8.67 13.64 8.34 16.28 8 19 C6.17952715 15.56226987 4.812372 12.01122863 3.4375 8.375 C1.86011961 4.1256159 1.86011961 4.1256159 0 0 Z " fill="#A31719" transform="translate(331,130)"/>
<path d="M0 0 C0 3 0 3 -1.875 5.1875 C-4 7 -4 7 -6 7 C-6.268125 7.58265625 -6.53625 8.1653125 -6.8125 8.765625 C-8.01480991 11.02786601 -9.33825913 12.80576318 -11 14.75 C-11.515625 15.36359375 -12.03125 15.9771875 -12.5625 16.609375 C-14 18 -14 18 -16 18 C-12.59573688 10.5272273 -6.25350037 5.10489826 0 0 Z " fill="#8C070A" transform="translate(154,106)"/>
<path d="M0 0 C0 0.66 0 1.32 0 2 C-6.75 6 -6.75 6 -9 6 C-9.66 7.32 -10.32 8.64 -11 10 C-12.32 9.67 -13.64 9.34 -15 9 C-13.20966193 7.68568828 -11.41768797 6.3736047 -9.625 5.0625 C-8.62726563 4.33160156 -7.62953125 3.60070312 -6.6015625 2.84765625 C-2.59196617 0 -2.59196617 0 0 0 Z " fill="#8D070C" transform="translate(179,89)"/>
<path d="M0 0 C3.00771455 3.00771455 4.75988784 5.97312418 6.6875 9.6875 C7.00783203 10.29400391 7.32816406 10.90050781 7.65820312 11.52539062 C8.44371484 13.01434566 9.22252942 14.50683047 10 16 C9.01 15.67 8.02 15.34 7 15 C6.3125 12.9375 6.3125 12.9375 6 11 C4.68 10.67 3.36 10.34 2 10 C1.34 6.7 0.68 3.4 0 0 Z " fill="#A41A1E" transform="translate(193,363)"/>
<path d="M0 0 C0.33 0 0.66 0 1 0 C1.13277344 0.86882812 1.26554687 1.73765625 1.40234375 2.6328125 C1.66724609 4.36144531 1.66724609 4.36144531 1.9375 6.125 C2.11152344 7.26195312 2.28554688 8.39890625 2.46484375 9.5703125 C2.95589266 12.71732669 3.47018719 15.85930783 4 19 C2.68 18.67 1.36 18.34 0 18 C0 12.06 0 6.12 0 0 Z " fill="#A81F25" transform="translate(290,265)"/>
<path d="M0 0 C1.47522426 4.64695642 0.41179883 8.44005207 -1 13 C-2.625 16.0625 -2.625 16.0625 -4 18 C-5.72251754 13.9154674 -4.07280563 10.63026304 -2.5625 6.75 C-2.31951172 6.1003125 -2.07652344 5.450625 -1.82617188 4.78125 C-1.22714006 3.18383183 -0.61485679 1.59139406 0 0 Z " fill="#8A090B" transform="translate(116,160)"/>
<path d="M0 0 C0.33 0.66 0.66 1.32 1 2 C2.65 2 4.3 2 6 2 C3.3101115 3.793259 0.58708537 5.46745549 -2.1875 7.125 C-3.53908203 7.93324219 -3.53908203 7.93324219 -4.91796875 8.7578125 C-5.60503906 9.16773437 -6.29210937 9.57765625 -7 10 C-6.67 8.68 -6.34 7.36 -6 6 C-5.34 6.33 -4.68 6.66 -4 7 C-4.33 6.01 -4.66 5.02 -5 4 C-4.34 3.67 -3.68 3.34 -3 3 C-2.01 3.33 -1.02 3.66 0 4 C0 2.68 0 1.36 0 0 Z " fill="#A8161B" transform="translate(185,113)"/>
<path d="M0 0 C0.66 1.32 1.32 2.64 2 4 C0.02 4.99 0.02 4.99 -2 6 C-1.9175 6.763125 -1.835 7.52625 -1.75 8.3125 C-2 11 -2 11 -4 12.8125 C-4.66 13.204375 -5.32 13.59625 -6 14 C-5.41892368 10.2397015 -4.34800504 7.46964968 -2.4375 4.1875 C-1.98246094 3.39730469 -1.52742188 2.60710937 -1.05859375 1.79296875 C-0.53458984 0.90544922 -0.53458984 0.90544922 0 0 Z " fill="#A51316" transform="translate(271,424)"/>
<path d="M0 0 C1.55078125 1.17578125 1.55078125 1.17578125 3 3 C2.85546875 5.48046875 2.85546875 5.48046875 2.1875 8.1875 C1.86845703 9.53908203 1.86845703 9.53908203 1.54296875 10.91796875 C1.27419922 11.94857422 1.27419922 11.94857422 1 13 C0.34 13 -0.32 13 -1 13 C-1.02686553 11.02090602 -1.04633375 9.04171029 -1.0625 7.0625 C-1.07410156 5.96035156 -1.08570313 4.85820312 -1.09765625 3.72265625 C-1 1 -1 1 0 0 Z " fill="#A70F14" transform="translate(364,217)"/>
<path d="M0 0 C2.31 0.33 4.62 0.66 7 1 C5.35 2.98 3.7 4.96 2 7 C1.67 6.01 1.34 5.02 1 4 C0.01 3.67 -0.98 3.34 -2 3 C-1.34 2.01 -0.68 1.02 0 0 Z " fill="#AA1618" transform="translate(171,122)"/>
<path d="M0 0 C0.66 0.33 1.32 0.66 2 1 C1.01 5.95 0.02 10.9 -1 16 C-1.33 16 -1.66 16 -2 16 C-3 9.375 -3 9.375 -3 6 C-2.34 5.34 -1.68 4.68 -1 4 C-0.3574765 1.93125966 -0.3574765 1.93125966 0 0 Z " fill="#A11010" transform="translate(165,137)"/>
<path d="M0 0 C3.57104439 1.87949705 5.54744301 3.17053157 7 7 C1.25 6.25 1.25 6.25 -1 4 C-0.625 1.875 -0.625 1.875 0 0 Z " fill="#AD1215" transform="translate(216,129)"/>
<path d="M0 0 C0 3.62653234 -1.00389257 5.05423517 -2.875 8.125 C-3.40867187 9.01445312 -3.94234375 9.90390625 -4.4921875 10.8203125 C-6 13 -6 13 -8 14 C-8 13.01 -8 12.02 -8 11 C-7.34 11 -6.68 11 -6 11 C-5.81824219 10.37351562 -5.63648438 9.74703125 -5.44921875 9.1015625 C-5.19785156 8.28429687 -4.94648438 7.46703125 -4.6875 6.625 C-4.44386719 5.81289063 -4.20023437 5.00078125 -3.94921875 4.1640625 C-3 2 -3 2 0 0 Z " fill="#92080D" transform="translate(375,282)"/>
<path d="M0 0 C0.66 0.33 1.32 0.66 2 1 C-0.2370804 4.3556206 -0.42517038 4.19278041 -4 5 C-4.33 5.66 -4.66 6.32 -5 7 C-6.32 6.67 -7.64 6.34 -9 6 C-3.375 1.125 -3.375 1.125 0 0 Z " fill="#A81D22" transform="translate(198,127)"/>
<path d="M0 0 C0.33 0.66 0.66 1.32 1 2 C-0.43359375 4.8203125 -0.43359375 4.8203125 -2.4375 8.125 C-3.09621094 9.22070312 -3.75492187 10.31640625 -4.43359375 11.4453125 C-4.95050781 12.28835938 -5.46742188 13.13140625 -6 14 C-6.66 12.68 -7.32 11.36 -8 10 C-7.01 10 -6.02 10 -5 10 C-4.9175 9.278125 -4.835 8.55625 -4.75 7.8125 C-3.85249799 4.44686746 -2.2885722 2.58387184 0 0 Z " fill="#95080B" transform="translate(274,455)"/>
<path d="M0 0 C0.33 1.32 0.66 2.64 1 4 C0.34 4 -0.32 4 -1 4 C-0.896875 4.763125 -0.79375 5.52625 -0.6875 6.3125 C-0.790625 7.199375 -0.89375 8.08625 -1 9 C-3.5 10.8125 -3.5 10.8125 -6 12 C-4.43358249 7.69235185 -2.31663844 3.93828536 0 0 Z " fill="#A6171C" transform="translate(278,412)"/>
<path d="M0 0 C0.33 0 0.66 0 1 0 C1.37952295 6.19887485 0.8352113 10.4477112 -2 16 C-2.66 16 -3.32 16 -4 16 C-2.68 10.72 -1.36 5.44 0 0 Z " fill="#A71C20" transform="translate(338,165)"/>
<path d="M0 0 C-4.455 3.465 -4.455 3.465 -9 7 C-9.33 5.68 -9.66 4.36 -10 3 C-6.84439813 -0.15560187 -4.30999015 -1.43666338 0 0 Z " fill="#A91E22" transform="translate(276,118)"/>
<path d="M0 0 C4.83256305 0.41421969 6.82679218 2.46413986 10 6 C9.01 6.33 8.02 6.66 7 7 C7 6.01 7 5.02 7 4 C4.36 3.67 1.72 3.34 -1 3 C-0.67 2.01 -0.34 1.02 0 0 Z " fill="#9C0607" transform="translate(331,97)"/>
<path d="M0 0 C0 3 0 3 -1 5 C-1.33 5.33 -1.66 5.66 -2 6 C-1.59070014 8.05396726 -1.59070014 8.05396726 -1 10 C-2.7074998 8.71937515 -4.37373596 7.38232443 -6 6 C-6 5.34 -6 4.68 -6 4 C-4.03852126 2.61061923 -2.03833424 1.2739589 0 0 Z " fill="#A62124" transform="translate(302,248)"/>
<path d="M0 0 C0.66 0 1.32 0 2 0 C0.88059018 4.85077588 -0.1334716 7.777893 -4 11 C-3.67 8.69 -3.34 6.38 -3 4 C-2.34 4 -1.68 4 -1 4 C-0.67 2.68 -0.34 1.36 0 0 Z " fill="#A3151B" transform="translate(317,171)"/>
<path d="M0 0 C5.17930997 1.24303439 8.70166639 2.85487785 13 6 C11.3125 6.6875 11.3125 6.6875 9 7 C5.34117274 5.26205705 2.74559948 2.94897721 0 0 Z " fill="#FAD8D6" transform="translate(219,115)"/>
<path d="M0 0 C2.94995547 3.45856848 5.22675738 6.80021485 7 11 C6.67 11.66 6.34 12.32 6 13 C2.9219997 10.22979973 1.19517992 7.98393307 0 4 C0 2.68 0 1.36 0 0 Z " fill="#A21D1C" transform="translate(203,380)"/>
<path d="M0 0 C1 3 1 3 -0.21484375 5.48046875 C-0.78332031 6.37378906 -1.35179687 7.26710938 -1.9375 8.1875 C-2.50339844 9.08855469 -3.06929688 9.98960937 -3.65234375 10.91796875 C-4.09707031 11.60503906 -4.54179687 12.29210937 -5 13 C-5.66 11.68 -6.32 10.36 -7 9 C-6.01 8.67 -5.02 8.34 -4 8 C-2.89363605 5.60931266 -2.89363605 5.60931266 -2 3 C-1.34 2.01 -0.68 1.02 0 0 Z " fill="#92090B" transform="translate(339,341)"/>
<path d="M0 0 C1.97566188 1.97566188 2.89579072 3.52337094 4.125 6 C4.47820312 6.70125 4.83140625 7.4025 5.1953125 8.125 C6 10 6 10 6 12 C3.21882328 10.9802352 2.18166898 10.33608762 0.75 7.6875 C-0.00511726 4.98166314 -0.1595955 2.79292118 0 0 Z " fill="#F8DCD8" transform="translate(273,170)"/>
<path d="M0 0 C0.99 0.33 1.98 0.66 3 1 C3.33 3.31 3.66 5.62 4 8 C2.68 7.34 1.36 6.68 0 6 C0 4.02 0 2.04 0 0 Z " fill="#A71617" transform="translate(163,172)"/>
<path d="M0 0 C2.475 0.99 2.475 0.99 5 2 C5.33 4.31 5.66 6.62 6 9 C3.03134491 6.45543849 1.6380249 3.51005335 0 0 Z " fill="#F9E0DE" transform="translate(233,432)"/>
<path d="M0 0 C0.66 0.33 1.32 0.66 2 1 C-0.475 5.455 -0.475 5.455 -3 10 C-3.66 8.68 -4.32 7.36 -5 6 C-3.35 4.02 -1.7 2.04 0 0 Z " fill="#97080A" transform="translate(305,400)"/>
<path d="M0 0 C1 3 1 3 0.22265625 5.04296875 C-0.16019531 5.75066406 -0.54304688 6.45835937 -0.9375 7.1875 C-1.31777344 7.90292969 -1.69804687 8.61835938 -2.08984375 9.35546875 C-2.54037109 10.16951172 -2.54037109 10.16951172 -3 11 C-3.66 11 -4.32 11 -5 11 C-3.77472971 6.94718288 -2.30119506 3.55639236 0 0 Z " fill="#9F171B" transform="translate(307,361)"/>
<path d="M0 0 C0.99 0 1.98 0 3 0 C3.33 3.3 3.66 6.6 4 10 C1.07490914 6.09987886 0.52464905 4.61691161 0 0 Z " fill="#A41717" transform="translate(304,272)"/>
<path d="M0 0 C0.66 0 1.32 0 2 0 C2.33 1.32 2.66 2.64 3 4 C1.02 4.99 1.02 4.99 -1 6 C-1.66 5.34 -2.32 4.68 -3 4 C-1.625 2 -1.625 2 0 0 Z " fill="#F9E0E1" transform="translate(221,180)"/>
<path d="M0 0 C0.66 0.33 1.32 0.66 2 1 C-0.475 5.455 -0.475 5.455 -3 10 C-4 6 -4 6 -2.0625 2.75 C-1.381875 1.8425 -0.70125 0.935 0 0 Z " fill="#FBDFD9" transform="translate(283,400)"/>
<path d="M0 0 C0.33 0.66 0.66 1.32 1 2 C0.06421005 4.35981813 -0.93347808 6.69631264 -2 9 C-2.99 9 -3.98 9 -5 9 C-3.35 6.03 -1.7 3.06 0 0 Z " fill="#A5181D" transform="translate(294,384)"/>
<path d="M0 0 C2.875 0.1875 2.875 0.1875 6 1 C7.375 3.5625 7.375 3.5625 8 6 C5.5 4.625 5.5 4.625 3 3 C3 2.34 3 1.68 3 1 C2.01 0.67 1.02 0.34 0 0 Z " fill="#A51A1B" transform="translate(282,259)"/>
<path d="M0 0 C0.66 0 1.32 0 2 0 C3.7143618 1.95927063 5.38405168 3.95880212 7 6 C6.01 6.495 6.01 6.495 5 7 C5 6.34 5 5.68 5 5 C3.35 4.67 1.7 4.34 0 4 C0 2.68 0 1.36 0 0 Z " fill="#A61B1D" transform="translate(263,188)"/>
<path d="M0 0 C1.32 0.66 2.64 1.32 4 2 C0.375 5 0.375 5 -3 5 C-1.125 1.125 -1.125 1.125 0 0 Z " fill="#A5090C" transform="translate(215,182)"/>
<path d="M0 0 C-1.33332095 3.99996286 -3.4957827 4.83782337 -7 7 C-7.66 6.67 -8.32 6.34 -9 6 C-7.8803014 4.99406757 -6.7540588 3.9954151 -5.625 3 C-4.68527344 2.1646875 -4.68527344 2.1646875 -3.7265625 1.3125 C-2 0 -2 0 0 0 Z " fill="#89090D" transform="translate(164,99)"/>
<path d="M0 0 C3.40424844 1.13474948 4.21653709 1.96811304 6 5 C5.67 5.99 5.34 6.98 5 8 C2.74754119 5.31158141 1.11786042 3.35358125 0 0 Z " fill="#FBE1DD" transform="translate(196,367)"/>
<path d="M0 0 C2.31 1.98 4.62 3.96 7 6 C5.68 6.33 4.36 6.66 3 7 C1.79371992 4.66785852 0.8345262 2.50357861 0 0 Z " fill="#9D090C" transform="translate(351,112)"/>
</svg>
