<?xml version="1.0" encoding="UTF-8"?>
<svg version="1.1" xmlns="http://www.w3.org/2000/svg" width="500" height="500">
<path d="M0 0 C1.04414063 0.55429688 2.08828125 1.10859375 3.1640625 1.6796875 C35.36494316 19.43690137 58.93521261 51.07402707 69.64453125 85.94140625 C80.32894591 123.75652139 75.42211949 163.83363563 56.34375 198.1015625 C53.3657747 203.21375343 49.91384531 208.00542629 46.38818359 212.75146484 C42.99782023 217.36086077 40.19725261 222.11593308 37.50927734 227.16601562 C35.05009584 231.78364404 32.45403901 236.32356785 29.875 240.875 C29.31296875 241.86822266 28.7509375 242.86144531 28.171875 243.88476562 C23.97340412 251.29798496 19.75068629 258.69716411 15.51660156 266.09008789 C12.40494465 271.52734711 9.31772731 276.97776798 6.24438477 282.43676758 C-2.06342289 297.18992096 -10.49541433 311.87612149 -19.234375 326.37890625 C-21.16723098 329.59207689 -23.04606937 332.81644739 -24.8125 336.125 C-30.866866 347.31546056 -37.18571122 358.33993761 -43.625 369.3125 C-49.64496834 379.57298047 -55.46304988 389.93529814 -61.20166016 400.35473633 C-62.09957275 401.98318481 -62.09957275 401.98318481 -63.015625 403.64453125 C-63.54446289 404.60721924 -64.07330078 405.56990723 -64.61816406 406.56176758 C-65.67067971 408.41891843 -66.81590041 410.22385062 -68 412 C-71.59396479 410.80201174 -71.73619291 410.17627605 -73.42578125 406.93359375 C-73.8851709 406.06822998 -74.34456055 405.20286621 -74.81787109 404.3112793 C-75.31109863 403.36293213 -75.80432617 402.41458496 -76.3125 401.4375 C-80.66890764 393.25031952 -85.16421938 385.17612165 -89.875 377.1875 C-95.48487961 367.65649287 -100.93754376 358.04730255 -106.29443359 348.37182617 C-109.01421157 343.47453251 -111.79895633 338.66098554 -114.80395508 333.93383789 C-116.53654472 331.13248199 -118.11527241 328.25347903 -119.70019531 325.36669922 C-127.48321272 311.19529224 -135.59521575 297.20193771 -143.69067383 283.20776367 C-147.01861297 277.45040739 -150.32286981 271.68247957 -153.5625 265.875 C-158.98705441 256.15764216 -164.64078055 246.57223094 -170.26269531 236.96826172 C-172.11109331 233.81019217 -173.9587397 230.65168997 -175.8046875 227.4921875 C-176.36913574 226.52651855 -176.93358398 225.56084961 -177.51513672 224.56591797 C-178.70229553 222.51444821 -179.85676855 220.45091525 -181 218.375 C-182.625838 215.63139837 -184.32094717 213.13808663 -186.1875 210.5625 C-193.52485436 200.19552836 -199.62236675 188.92369335 -204 177 C-204.64582031 175.26169922 -204.64582031 175.26169922 -205.3046875 173.48828125 C-217.79789907 138.1154899 -214.91902086 100.12209304 -200 66 C-199.56042969 64.99453125 -199.12085938 63.9890625 -198.66796875 62.953125 C-192.10963756 48.96705849 -182.72542742 36.99356311 -172 26 C-171.2471875 25.17371094 -170.494375 24.34742188 -169.71875 23.49609375 C-158.02276548 11.01904177 -143.51626249 1.93179607 -128 -5 C-126.9996875 -5.46792969 -125.999375 -5.93585938 -124.96875 -6.41796875 C-85.53166702 -24.02380937 -37.48002313 -20.75271175 0 0 Z " fill="#FEFDFD" transform="translate(319,87)"/>
<path d="M0 0 C1.04414063 0.55429688 2.08828125 1.10859375 3.1640625 1.6796875 C35.36494316 19.43690137 58.93521261 51.07402707 69.64453125 85.94140625 C80.32894591 123.75652139 75.42211949 163.83363563 56.34375 198.1015625 C53.3657747 203.21375343 49.91384531 208.00542629 46.38818359 212.75146484 C42.99782023 217.36086077 40.19725261 222.11593308 37.50927734 227.16601562 C35.05009584 231.78364404 32.45403901 236.32356785 29.875 240.875 C29.31296875 241.86822266 28.7509375 242.86144531 28.171875 243.88476562 C23.97340412 251.29798496 19.75068629 258.69716411 15.51660156 266.09008789 C12.40494465 271.52734711 9.31772731 276.97776798 6.24438477 282.43676758 C-2.06342289 297.18992096 -10.49541433 311.87612149 -19.234375 326.37890625 C-21.16723098 329.59207689 -23.04606937 332.81644739 -24.8125 336.125 C-30.866866 347.31546056 -37.18571122 358.33993761 -43.625 369.3125 C-49.64496834 379.57298047 -55.46304988 389.93529814 -61.20166016 400.35473633 C-62.09957275 401.98318481 -62.09957275 401.98318481 -63.015625 403.64453125 C-63.54446289 404.60721924 -64.07330078 405.56990723 -64.61816406 406.56176758 C-65.67067971 408.41891843 -66.81590041 410.22385062 -68 412 C-71.59396479 410.80201174 -71.73619291 410.17627605 -73.42578125 406.93359375 C-73.8851709 406.06822998 -74.34456055 405.20286621 -74.81787109 404.3112793 C-75.31109863 403.36293213 -75.80432617 402.41458496 -76.3125 401.4375 C-80.66890764 393.25031952 -85.16421938 385.17612165 -89.875 377.1875 C-95.48487961 367.65649287 -100.93754376 358.04730255 -106.29443359 348.37182617 C-109.01421157 343.47453251 -111.79895633 338.66098554 -114.80395508 333.93383789 C-116.53654472 331.13248199 -118.11527241 328.25347903 -119.70019531 325.36669922 C-127.48321272 311.19529224 -135.59521575 297.20193771 -143.69067383 283.20776367 C-147.01861297 277.45040739 -150.32286981 271.68247957 -153.5625 265.875 C-158.98705441 256.15764216 -164.64078055 246.57223094 -170.26269531 236.96826172 C-172.11109331 233.81019217 -173.9587397 230.65168997 -175.8046875 227.4921875 C-176.36913574 226.52651855 -176.93358398 225.56084961 -177.51513672 224.56591797 C-178.70229553 222.51444821 -179.85676855 220.45091525 -181 218.375 C-182.625838 215.63139837 -184.32094717 213.13808663 -186.1875 210.5625 C-193.52485436 200.19552836 -199.62236675 188.92369335 -204 177 C-204.64582031 175.26169922 -204.64582031 175.26169922 -205.3046875 173.48828125 C-217.79789907 138.1154899 -214.91902086 100.12209304 -200 66 C-199.56042969 64.99453125 -199.12085938 63.9890625 -198.66796875 62.953125 C-192.10963756 48.96705849 -182.72542742 36.99356311 -172 26 C-171.2471875 25.17371094 -170.494375 24.34742188 -169.71875 23.49609375 C-158.02276548 11.01904177 -143.51626249 1.93179607 -128 -5 C-126.9996875 -5.46792969 -125.999375 -5.93585938 -124.96875 -6.41796875 C-85.53166702 -24.02380937 -37.48002313 -20.75271175 0 0 Z M-150.0390625 64.46875 C-166.85876151 87.50943358 -173.2530845 115.24765222 -169.67919922 143.53955078 C-168.85144538 148.16511565 -167.53191937 152.55492247 -166 157 C-165.63777344 158.10988281 -165.27554688 159.21976563 -164.90234375 160.36328125 C-160.28581354 173.43040913 -153.11113916 185.62392414 -143.4453125 195.60546875 C-137.66678688 201.68072947 -134.55792184 209.51508939 -131 217 C-130.11680225 218.8376805 -129.23263866 220.67489704 -128.34765625 222.51171875 C-126.34091915 226.68100937 -124.34062711 230.85332235 -122.34375 235.02734375 C-118.73125092 242.57102828 -115.08487544 250.09814131 -111.4375 257.625 C-106.64336405 267.52074683 -101.87161791 277.4266969 -97.13696289 287.35107422 C-93.40766019 295.16268442 -89.6431428 302.95708449 -85.875 310.75 C-80.52849854 321.80761525 -75.23113031 332.88730784 -70 344 C-69.34 344 -68.68 344 -68 344 C-64.12048613 336.52483913 -60.58092412 328.9277842 -57.125 321.25 C-53.26387112 312.68736192 -49.22571872 304.24821466 -44.95898438 295.88134766 C-38.86843275 283.93282658 -33.04677424 271.86617415 -27.30322266 259.74755859 C-24.26155547 253.33487172 -21.20263344 246.93065472 -18.125 240.53515625 C-16.08568842 236.29127391 -14.07893197 232.03370288 -12.09225464 227.76504517 C-10.70901051 224.80117315 -9.31107893 221.84434809 -7.91119385 218.88830566 C-7.23058803 217.44274492 -6.55602795 215.99431922 -5.88812256 214.54284668 C-2.13355263 206.39273471 1.57108363 199.56475587 7.96020508 193.09375 C25.81809862 174.76349326 32.37879018 148.82911044 32.30273438 124.07104492 C31.85019059 97.11326299 21.34246719 74.4252962 3 55 C2.12021484 54.0409375 2.12021484 54.0409375 1.22265625 53.0625 C-3.33398324 48.2592659 -8.47557715 44.61858093 -14 41 C-14.72445312 40.49597656 -15.44890625 39.99195313 -16.1953125 39.47265625 C-59.9135538 10.75875909 -118.09797978 25.79678777 -150.0390625 64.46875 Z " fill="#B20102" transform="translate(319,87)"/>
<path d="M0 0 C0.33 0 0.66 0 1 0 C6.0241529 26.841136 6.57171115 51.57956108 -1 78 C-1.99234167 74.87502907 -1.95733489 72.82046484 -1.22265625 69.640625 C-1.03856201 68.78428467 -0.85446777 67.92794434 -0.66479492 67.0456543 C-0.4660376 66.12308838 -0.26728027 65.20052246 -0.0625 64.25 C2.34927042 52.09788062 2.47318209 40.34144923 2 28 C1.96712891 27.11151367 1.93425781 26.22302734 1.90039062 25.30761719 C2.25142424 17.11923488 2.25142424 17.11923488 0 10 C-0.07205511 8.31391034 -0.08386068 6.62499341 -0.0625 4.9375 C-0.05347656 4.01839844 -0.04445313 3.09929687 -0.03515625 2.15234375 C-0.02355469 1.44207031 -0.01195312 0.73179687 0 0 Z " fill="#8C080A" transform="translate(389,178)"/>
<path d="M0 0 C1.18327388 4.01265402 0.54734809 6.53678614 -0.4375 10.625 C-2.03548923 18.15658029 -2.34043787 25.56404056 -2.375 33.25 C-2.38845459 34.32588379 -2.40190918 35.40176758 -2.41577148 36.51025391 C-2.37950083 43.191207 -1.47257374 49.03040428 0.45458984 55.43261719 C1.01586825 58.07469582 0.89177445 59.48527005 0 62 C-0.65264429 59.98135603 -1.29678746 57.95996273 -1.9375 55.9375 C-2.29714844 54.81214844 -2.65679687 53.68679687 -3.02734375 52.52734375 C-7.82624488 35.1240999 -5.51252512 16.87226439 0 0 Z " fill="#A42020" transform="translate(152,182)"/>
<path d="M0 0 C1 3 1 3 1 7 C0.01 7 -0.98 7 -2 7 C-1.6596875 8.11375 -1.6596875 8.11375 -1.3125 9.25 C-1 12 -1 12 -2.25 14 C-3.11625 14.99 -3.11625 14.99 -4 16 C-5.02611949 17.65071396 -6.02308143 19.31970006 -7 21 C-7.34417969 21.57234375 -7.68835938 22.1446875 -8.04296875 22.734375 C-9.83491786 25.76192801 -11.43936974 28.49606085 -12 32 C-12.66 32 -13.32 32 -14 32 C-14.33 34.64 -14.66 37.28 -15 40 C-16.485 40.495 -16.485 40.495 -18 41 C-18 41.66 -18 42.32 -18 43 C-18.66 42.67 -19.32 42.34 -20 42 C-13.90457845 28.54152499 -7.73735795 15.15045804 -1 2 C-0.67 1.34 -0.34 0.68 0 0 Z " fill="#A71B1C" transform="translate(275,379)"/>
<path d="M0 0 C0 4.06794873 -1.53035972 4.92386631 -4.3125 7.8125 C-7.70391189 11.33498095 -9.98510712 14.53332808 -12 19 C-12.66 19 -13.32 19 -14 19 C-14.020625 19.70125 -14.04125 20.4025 -14.0625 21.125 C-15.44979209 25.3793624 -18.51624172 27.35307139 -22 30 C-20.49185548 25.60742606 -18.14056375 22.04325105 -15.4375 18.3125 C-14.99929932 17.70253174 -14.56109863 17.09256348 -14.10961914 16.46411133 C-9.82811647 10.59886014 -5.13906103 5.13906103 0 0 Z " fill="#8F080B" transform="translate(147,113)"/>
<path d="M0 0 C0.5534764 2.07553648 1 3.84365964 1 6 C1.66 6.33 2.32 6.66 3 7 C2.6875 9.375 2.6875 9.375 2 12 C-1 14 -1 14 -5 14 C-5.33 15.98 -5.66 17.96 -6 20 C-6.66 19.67 -7.32 19.34 -8 19 C-6.44071133 12.13912984 -3.24242526 6.20955026 0 0 Z " fill="#B1090A" transform="translate(284,360)"/>
<path d="M0 0 C1.20628008 2.33214148 2.1654738 4.49642139 3 7 C2.34 7 1.68 7 1 7 C1 6.34 1 5.68 1 5 C0.54625 5.495 0.0925 5.99 -0.375 6.5 C-2 8 -2 8 -4 8 C-4.33 9.32 -4.66 10.64 -5 12 C-5.99 12 -6.98 12 -8 12 C-8.10183594 12.58265625 -8.20367187 13.1653125 -8.30859375 13.765625 C-9.11517153 16.37219275 -10.24157009 17.73535414 -12.0625 19.75 C-12.61035156 20.36359375 -13.15820312 20.9771875 -13.72265625 21.609375 C-14.14417969 22.06828125 -14.56570313 22.5271875 -15 23 C-15.33 22.34 -15.66 21.68 -16 21 C-12.36311 15.17271035 -8.39938611 9.99003382 -3.734375 4.9453125 C-1.84104022 2.91287513 -1.84104022 2.91287513 0 0 Z " fill="#AA191B" transform="translate(333,271)"/>
<path d="M0 0 C1.98 0 3.96 0 6 0 C6 0.66 6 1.32 6 2 C6.66 2 7.32 2 8 2 C10 4 10 4 10.75 6 C12.5669377 8.90710032 14.78457488 9.16119345 18 10 C18 11.98 18 13.96 18 16 C16.3355688 14.57334469 14.67129268 13.14651437 13.0078125 11.71875 C11.71389634 10.61111749 10.4172224 9.50669448 9.1171875 8.40625 C5.94643753 5.71591669 2.88600208 3.00144216 0 0 Z " fill="#A70E12" transform="translate(308,130)"/>
<path d="M0 0 C4.27835261 1.49263421 7.81661829 3.7272959 11.5 6.3125 C12.05558594 6.69083984 12.61117188 7.06917969 13.18359375 7.45898438 C16.86590535 10.01927397 19.9297942 12.76368232 23 16 C20.03 15.505 20.03 15.505 17 15 C17 14.01 17 13.02 17 12 C14.36 11.67 11.72 11.34 9 11 C9.33 9.68 9.66 8.36 10 7 C9.46375 6.731875 8.9275 6.46375 8.375 6.1875 C5.58333333 4.79166667 2.79166667 3.39583333 0 2 C0 1.34 0 0.68 0 0 Z " fill="#970606" transform="translate(321,89)"/>
<path d="M0 0 C0.66 0 1.32 0 2 0 C4.875 6.625 4.875 6.625 6 10 C6.66 10 7.32 10 8 10 C11.10096154 15.45769231 11.10096154 15.45769231 10.58984375 18.203125 C10.39519531 18.79609375 10.20054687 19.3890625 10 20 C8.51157487 17.60949904 7.03421905 15.21325565 5.5625 12.8125 C5.14162109 12.13896484 4.72074219 11.46542969 4.28710938 10.77148438 C2.11063712 7.20206988 0.4532743 4.24429573 0 0 Z " fill="#93080E" transform="translate(139,304)"/>
<path d="M0 0 C0.66 0 1.32 0 2 0 C2.40992188 0.85464844 2.81984375 1.70929688 3.2421875 2.58984375 C3.78101563 3.69457031 4.31984375 4.79929687 4.875 5.9375 C5.40867188 7.03964844 5.94234375 8.14179688 6.4921875 9.27734375 C7.71659845 12.09404511 7.71659845 12.09404511 10 13 C10.66 11.68 11.32 10.36 12 9 C12.33 9.66 12.66 10.32 13 11 C11.5625 13.625 11.5625 13.625 10 16 C5.96374924 14.65458308 5.14552047 12.14052535 3.3125 8.5625 C2.99216797 7.96373047 2.67183594 7.36496094 2.34179688 6.74804688 C0 2.28914579 0 2.28914579 0 0 Z " fill="#8A0A0E" transform="translate(241,483)"/>
<path d="M0 0 C0.66 0 1.32 0 2 0 C0.3003494 4.73474097 -2.13659027 8.96167111 -4.625 13.3125 C-5.04523438 14.05306641 -5.46546875 14.79363281 -5.8984375 15.55664062 C-6.92948495 17.37269011 -7.96436046 19.18656533 -9 21 C-10 18 -10 18 -8.9375 15.4375 C-6.79603129 11.63812003 -4.57333473 7.89651971 -2.3046875 4.171875 C-0.99693497 2.05822306 -0.99693497 2.05822306 0 0 Z " fill="#8C090D" transform="translate(323,368)"/>
<path d="M0 0 C3.9252025 3.70090521 6.94580156 7.54959656 10 12 C9.01 12.495 9.01 12.495 8 13 C7.34 12.01 6.68 11.02 6 10 C5.01 9.67 4.02 9.34 3 9 C3 8.34 3 7.68 3 7 C1.68 6.67 0.36 6.34 -1 6 C-1 5.34 -1 4.68 -1 4 C-0.34 4 0.32 4 1 4 C0.67 2.68 0.34 1.36 0 0 Z " fill="#A91517" transform="translate(165,270)"/>
<path d="M0 0 C4.95998472 0.61632946 8.93671966 2.79835629 13.3125 5.0625 C14.05306641 5.43955078 14.79363281 5.81660156 15.55664062 6.20507812 C17.37387522 7.13128157 19.18732404 8.06490629 21 9 C18 10 18 10 15.125 8.625 C14.09375 8.08875 13.0625 7.5525 12 7 C9.26427415 6.30092586 9.26427415 6.30092586 7 6 C7 5.34 7 4.68 7 4 C6.030625 3.71125 5.06125 3.4225 4.0625 3.125 C1 2 1 2 0 0 Z " fill="#8B090A" transform="translate(300,79)"/>
<path d="M0 0 C0 0.66 0 1.32 0 2 C-1.45537568 2.83848804 -2.91440373 3.67063934 -4.375 4.5 C-5.59316406 5.19609375 -5.59316406 5.19609375 -6.8359375 5.90625 C-9 7 -9 7 -11 7 C-11.66 8.32 -12.32 9.64 -13 11 C-14.32 10.67 -15.64 10.34 -17 10 C-15.2527456 8.70462174 -13.50208483 7.41383727 -11.75 6.125 C-10.77546875 5.40570313 -9.8009375 4.68640625 -8.796875 3.9453125 C-3.12449799 0 -3.12449799 0 0 0 Z " fill="#8E080C" transform="translate(181,88)"/>
<path d="M0 0 C0 3.73335719 -1.20800723 5.76062846 -3 9 C-3.66 9.66 -4.32 10.32 -5 11 C-5.6425235 13.06874034 -5.6425235 13.06874034 -6 15 C-6.99 15 -7.98 15 -9 15 C-7.68262072 11.41061876 -6.09204262 8.40505503 -3.9375 5.25 C-3.41027344 4.47140625 -2.88304687 3.6928125 -2.33984375 2.890625 C-1 1 -1 1 0 0 Z " fill="#F9DBD5" transform="translate(170,151)"/>
<path d="M0 0 C2.33697029 2.33697029 3.27094054 4.49097899 4.625 7.5 C5.29402344 8.96953125 5.29402344 8.96953125 5.9765625 10.46875 C7 13 7 13 7 15 C6.34 15 5.68 15 5 15 C5 14.01 5 13.02 5 12 C4.01 12.33 3.02 12.66 2 13 C1.66127487 11.58461283 1.32925376 10.16762037 1 8.75 C0.814375 7.96109375 0.62875 7.1721875 0.4375 6.359375 C0 4 0 4 0 0 Z " fill="#A81919" transform="translate(154,248)"/>
<path d="M0 0 C1.47522426 4.64695642 0.41179883 8.44005207 -1 13 C-2.625 16.0625 -2.625 16.0625 -4 18 C-5.72251754 13.9154674 -4.07280563 10.63026304 -2.5625 6.75 C-2.31951172 6.1003125 -2.07652344 5.450625 -1.82617188 4.78125 C-1.22714006 3.18383183 -0.61485679 1.59139406 0 0 Z " fill="#8A090B" transform="translate(116,160)"/>
<path d="M0 0 C0.33 1.32 0.66 2.64 1 4 C0.34 4 -0.32 4 -1 4 C-1.33 6.64 -1.66 9.28 -2 12 C-2.99 12.33 -3.98 12.66 -5 13 C-5 13.66 -5 14.32 -5 15 C-5.66 14.67 -6.32 14.34 -7 14 C-4.69 9.38 -2.38 4.76 0 0 Z " fill="#A11416" transform="translate(262,407)"/>
<path d="M0 0 C1.0625 1.8125 1.0625 1.8125 2 4 C1.67 4.99 1.34 5.98 1 7 C0.34 7 -0.32 7 -1 7 C-1.66 8.65 -2.32 10.3 -3 12 C-3.66 12 -4.32 12 -5 12 C-3.68938409 7.76570244 -2.05643741 3.92592596 0 0 Z " fill="#A7191B" transform="translate(316,294)"/>
<path d="M0 0 C0.99 0 1.98 0 3 0 C1.33248852 3.94139078 -1.22710649 6.7892812 -4 10 C-4.33 9.34 -4.66 8.68 -5 8 C-4.109375 6.0546875 -4.109375 6.0546875 -2.75 3.875 C-2.09257812 2.78832031 -2.09257812 2.78832031 -1.421875 1.6796875 C-0.95265625 1.12539063 -0.4834375 0.57109375 0 0 Z " fill="#A51212" transform="translate(322,284)"/>
<path d="M0 0 C0.98120464 3.05263664 0.98120464 4.94736336 0 8 C-0.66 8 -1.32 8 -2 8 C-2.33 9.98 -2.66 11.96 -3 14 C-3.66 13.67 -4.32 13.34 -5 13 C-3.78184562 8.31479085 -2.30440013 4.29456388 0 0 Z " fill="#A9282A" transform="translate(281,366)"/>
<path d="M0 0 C3 1 3 1 4.203125 2.70703125 C4.54859375 3.40183594 4.8940625 4.09664063 5.25 4.8125 C5.60578125 5.49957031 5.9615625 6.18664062 6.328125 6.89453125 C7.11193544 9.35077442 6.84119973 10.60042386 6 13 C4.99759911 11.02204824 3.99813957 9.04260558 3 7.0625 C2.1646875 5.40927734 2.1646875 5.40927734 1.3125 3.72265625 C0 1 0 1 0 0 Z " fill="#FDE3E2" transform="translate(240,411)"/>
<path d="M0 0 C1 3 1 3 -0.21484375 5.48046875 C-0.78332031 6.37378906 -1.35179687 7.26710938 -1.9375 8.1875 C-2.50339844 9.08855469 -3.06929688 9.98960937 -3.65234375 10.91796875 C-4.09707031 11.60503906 -4.54179687 12.29210937 -5 13 C-5.66 11.68 -6.32 10.36 -7 9 C-6.01 8.67 -5.02 8.34 -4 8 C-2.89363605 5.60931266 -2.89363605 5.60931266 -2 3 C-1.34 2.01 -0.68 1.02 0 0 Z " fill="#91090B" transform="translate(339,341)"/>
<path d="M0 0 C4.77609498 1.64178265 8.79382904 4.26546702 13 7 C10 8 10 8 8.02734375 7.0390625 C7.33769531 6.57242188 6.64804687 6.10578125 5.9375 5.625 C5.24527344 5.16351563 4.55304688 4.70203125 3.83984375 4.2265625 C3.23269531 3.82179688 2.62554687 3.41703125 2 3 C1.34 2.67 0.68 2.34 0 2 C0 1.34 0 0.68 0 0 Z " fill="#85090B" transform="translate(321,89)"/>
<path d="M0 0 C0.33 0 0.66 0 1 0 C1.58305225 3.84814487 0.7002883 5.76308635 -1.5 8.8125 C-2.32219744 9.88364055 -3.15204049 10.9491359 -4 12 C-4.33 11.34 -4.66 10.68 -5 10 C-4.00390625 7.6171875 -4.00390625 7.6171875 -2.5625 4.875 C-1.85287109 3.50988281 -1.85287109 3.50988281 -1.12890625 2.1171875 C-0.75636719 1.41851562 -0.38382812 0.71984375 0 0 Z " fill="#860909" transform="translate(124,143)"/>
<path d="M0 0 C0.66 0.33 1.32 0.66 2 1 C1.01 2.98 0.02 4.96 -1 7 C-1.66 7 -2.32 7 -3 7 C-3.66 5.35 -4.32 3.7 -5 2 C-3.68 2 -2.36 2 -1 2 C-0.67 1.34 -0.34 0.68 0 0 Z " fill="#FBD6D3" transform="translate(252,424)"/>
<path d="M0 0 C0.66 0.33 1.32 0.66 2 1 C-0.475 5.455 -0.475 5.455 -3 10 C-3.66 8.68 -4.32 7.36 -5 6 C-3.35 4.02 -1.7 2.04 0 0 Z " fill="#98080A" transform="translate(305,400)"/>
<path d="M0 0 C0 4.38968456 -2.12805101 5.76905739 -5 9 C-5.99 8.67 -6.98 8.34 -8 8 C-5.36 5.36 -2.72 2.72 0 0 Z " fill="#FDDEDB" transform="translate(179,141)"/>
<path d="M0 0 C0.66 0.33 1.32 0.66 2 1 C0.35 3.64 -1.3 6.28 -3 9 C-3.33 7.68 -3.66 6.36 -4 5 C-2.0625 2.25 -2.0625 2.25 0 0 Z " fill="#FAE0DE" transform="translate(335,265)"/>
<path d="M0 0 C1.98 0 3.96 0 6 0 C6 0.66 6 1.32 6 2 C6.66 2.33 7.32 2.66 8 3 C7.67 3.66 7.34 4.32 7 5 C3.34683329 3.75023244 2.21934164 3.32901247 0 0 Z " fill="#A81B1B" transform="translate(308,130)"/>
<path d="M0 0 C-1.33332095 3.99996286 -3.4957827 4.83782337 -7 7 C-7.66 6.67 -8.32 6.34 -9 6 C-7.8803014 4.99406757 -6.7540588 3.9954151 -5.625 3 C-4.68527344 2.1646875 -4.68527344 2.1646875 -3.7265625 1.3125 C-2 0 -2 0 0 0 Z " fill="#88090D" transform="translate(164,99)"/>
<path d="M0 0 C2.31 1.98 4.62 3.96 7 6 C5.68 6.33 4.36 6.66 3 7 C1.79371992 4.66785852 0.8345262 2.50357861 0 0 Z " fill="#9D090C" transform="translate(351,112)"/>
</svg>
