<?xml version="1.0" encoding="UTF-8"?>
<svg id="Layer_1" data-name="Layer 1" xmlns="http://www.w3.org/2000/svg" viewBox="0 0 288 288">
  <defs>
    <style>
      .cls-1 {
        fill: #ee3424;
      }

      .cls-1, .cls-2 {
        stroke: #7f0036;
        stroke-miterlimit: 10;
      }

      .cls-2 {
        fill: #c72b27;
      }
    </style>
  </defs>
  <path class="cls-1" d="M268.99,149.52l-97.22,7.06v39.1l-7.94,60.48,26.63,7.89v15.5h-46.45V1.5c6.84.65,10.42,7.66,10.42,7.66l5.21,11.44,3.26,10.15,3.26,13.66,2.77,16.06,2.61,26.57.24,24.98v19.93h77.68c20.64,1.66,19.54,17.58,19.54,17.58Z"/>
  <path class="cls-2" d="M136.69,279.56h-39.15v-15.5l26.63-7.89-7.94-60.48v-39.1l-97.22-7.06s-1.1-15.92,19.54-17.58h77.68v-19.93l.24-24.98,2.61-26.57,2.77-16.06,3.26-13.66,3.26-10.15,5.21-11.44s3.58-7.01,10.42-7.66v278.06h-7.31Z"/>
  <path class="cls-1" d="M151.31,279.56s-.51,6.82-2.18,6.94h-5.13v-6.94h7.31Z"/>
  <path class="cls-2" d="M144,286.5h-5.13c-1.67-.13-2.18-6.94-2.18-6.94h7.31v6.94Z"/>
</svg>